M48
; DRILL file {KiCad 9.0.7} date 2026-01-22T15:28:59+0500
; FORMAT={-:-/ absolute / metric / decimal}
; #@! TF.CreationDate,2026-01-22T15:28:59+05:00
; #@! TF.GenerationSoftware,Kicad,Pcbnew,9.0.7
; #@! TF.FileFunction,Plated,1,2,PTH
FMAT,2
METRIC
; #@! TA.AperFunction,Plated,PTH,ComponentDrill
T1C1.000
; #@! TA.AperFunction,Plated,PTH,ComponentDrill
T2C1.300
%
G90
G05
T1
X117.3Y-44.0
X119.84Y-44.0
X122.0Y-63.86
X122.0Y-66.4
X122.0Y-68.94
X122.0Y-71.48
X122.0Y-74.02
X122.0Y-76.56
X122.0Y-79.1
X122.0Y-81.64
X122.0Y-84.18
X122.0Y-86.72
X122.0Y-89.26
X122.0Y-91.8
X122.0Y-94.34
X122.0Y-96.88
X122.0Y-99.42
X122.0Y-101.96
X122.0Y-104.5
X122.0Y-107.04
X122.0Y-109.58
X122.0Y-112.12
X122.106Y-121.905
X122.106Y-137.993
X122.38Y-44.0
X124.646Y-121.905
X124.646Y-137.993
X124.92Y-44.0
X127.186Y-121.905
X127.186Y-137.993
X127.46Y-44.0
X129.726Y-121.905
X129.726Y-137.993
X130.0Y-44.0
X132.266Y-121.905
X132.266Y-137.993
X132.54Y-44.0
X134.806Y-121.905
X134.806Y-137.993
X135.08Y-44.0
X137.346Y-121.905
X137.346Y-137.993
X137.62Y-44.0
X139.62Y-63.74
X139.62Y-66.28
X139.62Y-68.82
X139.62Y-71.36
X139.62Y-73.9
X139.62Y-76.44
X139.62Y-78.98
X139.62Y-81.52
X139.62Y-84.06
X139.62Y-86.6
X139.62Y-89.14
X139.62Y-91.68
X139.62Y-94.22
X139.62Y-96.76
X139.62Y-99.3
X139.62Y-101.84
X139.62Y-104.38
X139.62Y-106.92
X139.62Y-109.46
X139.62Y-112.0
X139.886Y-121.905
X139.886Y-137.993
X140.16Y-44.0
X142.7Y-44.0
X150.212Y-102.762
X150.212Y-122.762
X152.752Y-102.762
X152.752Y-122.762
X160.752Y-102.762
X160.752Y-122.762
X163.292Y-102.762
X163.292Y-122.762
T2
X99.13Y-107.242
X99.13Y-126.572
X104.21Y-107.242
X104.21Y-126.572
X149.75Y-90.75
X154.83Y-90.75
X174.712Y-106.632
X174.712Y-125.962
X179.792Y-106.632
X179.792Y-125.962
M30
