%TF.GenerationSoftware,KiCad,Pcbnew,9.0.7*%
%TF.CreationDate,2026-01-22T15:28:45+05:00*%
%TF.ProjectId,PCB,5043422e-6b69-4636-9164-5f7063625858,rev?*%
%TF.SameCoordinates,Original*%
%TF.FileFunction,Legend,Top*%
%TF.FilePolarity,Positive*%
%FSLAX46Y46*%
G04 Gerber Fmt 4.6, Leading zero omitted, Abs format (unit mm)*
G04 Created by KiCad (PCBNEW 9.0.7) date 2026-01-22 15:28:45*
%MOMM*%
%LPD*%
G01*
G04 APERTURE LIST*
%ADD10C,0.150000*%
%ADD11C,0.120000*%
G04 APERTURE END LIST*
D10*
X98455714Y-120706992D02*
X98455714Y-119706992D01*
X98455714Y-119706992D02*
X98789047Y-120421277D01*
X98789047Y-120421277D02*
X99122380Y-119706992D01*
X99122380Y-119706992D02*
X99122380Y-120706992D01*
X99741428Y-120706992D02*
X99646190Y-120659373D01*
X99646190Y-120659373D02*
X99598571Y-120611753D01*
X99598571Y-120611753D02*
X99550952Y-120516515D01*
X99550952Y-120516515D02*
X99550952Y-120230801D01*
X99550952Y-120230801D02*
X99598571Y-120135563D01*
X99598571Y-120135563D02*
X99646190Y-120087944D01*
X99646190Y-120087944D02*
X99741428Y-120040325D01*
X99741428Y-120040325D02*
X99884285Y-120040325D01*
X99884285Y-120040325D02*
X99979523Y-120087944D01*
X99979523Y-120087944D02*
X100027142Y-120135563D01*
X100027142Y-120135563D02*
X100074761Y-120230801D01*
X100074761Y-120230801D02*
X100074761Y-120516515D01*
X100074761Y-120516515D02*
X100027142Y-120611753D01*
X100027142Y-120611753D02*
X99979523Y-120659373D01*
X99979523Y-120659373D02*
X99884285Y-120706992D01*
X99884285Y-120706992D02*
X99741428Y-120706992D01*
X100360476Y-120040325D02*
X100741428Y-120040325D01*
X100503333Y-119706992D02*
X100503333Y-120564134D01*
X100503333Y-120564134D02*
X100550952Y-120659373D01*
X100550952Y-120659373D02*
X100646190Y-120706992D01*
X100646190Y-120706992D02*
X100741428Y-120706992D01*
X101217619Y-120706992D02*
X101122381Y-120659373D01*
X101122381Y-120659373D02*
X101074762Y-120611753D01*
X101074762Y-120611753D02*
X101027143Y-120516515D01*
X101027143Y-120516515D02*
X101027143Y-120230801D01*
X101027143Y-120230801D02*
X101074762Y-120135563D01*
X101074762Y-120135563D02*
X101122381Y-120087944D01*
X101122381Y-120087944D02*
X101217619Y-120040325D01*
X101217619Y-120040325D02*
X101360476Y-120040325D01*
X101360476Y-120040325D02*
X101455714Y-120087944D01*
X101455714Y-120087944D02*
X101503333Y-120135563D01*
X101503333Y-120135563D02*
X101550952Y-120230801D01*
X101550952Y-120230801D02*
X101550952Y-120516515D01*
X101550952Y-120516515D02*
X101503333Y-120611753D01*
X101503333Y-120611753D02*
X101455714Y-120659373D01*
X101455714Y-120659373D02*
X101360476Y-120706992D01*
X101360476Y-120706992D02*
X101217619Y-120706992D01*
X101979524Y-120706992D02*
X101979524Y-120040325D01*
X101979524Y-120230801D02*
X102027143Y-120135563D01*
X102027143Y-120135563D02*
X102074762Y-120087944D01*
X102074762Y-120087944D02*
X102170000Y-120040325D01*
X102170000Y-120040325D02*
X102265238Y-120040325D01*
X102931905Y-120183182D02*
X103074762Y-120230801D01*
X103074762Y-120230801D02*
X103122381Y-120278420D01*
X103122381Y-120278420D02*
X103170000Y-120373658D01*
X103170000Y-120373658D02*
X103170000Y-120516515D01*
X103170000Y-120516515D02*
X103122381Y-120611753D01*
X103122381Y-120611753D02*
X103074762Y-120659373D01*
X103074762Y-120659373D02*
X102979524Y-120706992D01*
X102979524Y-120706992D02*
X102598572Y-120706992D01*
X102598572Y-120706992D02*
X102598572Y-119706992D01*
X102598572Y-119706992D02*
X102931905Y-119706992D01*
X102931905Y-119706992D02*
X103027143Y-119754611D01*
X103027143Y-119754611D02*
X103074762Y-119802230D01*
X103074762Y-119802230D02*
X103122381Y-119897468D01*
X103122381Y-119897468D02*
X103122381Y-119992706D01*
X103122381Y-119992706D02*
X103074762Y-120087944D01*
X103074762Y-120087944D02*
X103027143Y-120135563D01*
X103027143Y-120135563D02*
X102931905Y-120183182D01*
X102931905Y-120183182D02*
X102598572Y-120183182D01*
X104074762Y-120706992D02*
X103598572Y-120706992D01*
X103598572Y-120706992D02*
X103598572Y-119706992D01*
X104931905Y-120706992D02*
X104360477Y-120706992D01*
X104646191Y-120706992D02*
X104646191Y-119706992D01*
X104646191Y-119706992D02*
X104550953Y-119849849D01*
X104550953Y-119849849D02*
X104455715Y-119945087D01*
X104455715Y-119945087D02*
X104360477Y-119992706D01*
X98527142Y-101376992D02*
X98527142Y-100376992D01*
X98527142Y-100376992D02*
X98860475Y-101091277D01*
X98860475Y-101091277D02*
X99193808Y-100376992D01*
X99193808Y-100376992D02*
X99193808Y-101376992D01*
X99812856Y-101376992D02*
X99717618Y-101329373D01*
X99717618Y-101329373D02*
X99669999Y-101281753D01*
X99669999Y-101281753D02*
X99622380Y-101186515D01*
X99622380Y-101186515D02*
X99622380Y-100900801D01*
X99622380Y-100900801D02*
X99669999Y-100805563D01*
X99669999Y-100805563D02*
X99717618Y-100757944D01*
X99717618Y-100757944D02*
X99812856Y-100710325D01*
X99812856Y-100710325D02*
X99955713Y-100710325D01*
X99955713Y-100710325D02*
X100050951Y-100757944D01*
X100050951Y-100757944D02*
X100098570Y-100805563D01*
X100098570Y-100805563D02*
X100146189Y-100900801D01*
X100146189Y-100900801D02*
X100146189Y-101186515D01*
X100146189Y-101186515D02*
X100098570Y-101281753D01*
X100098570Y-101281753D02*
X100050951Y-101329373D01*
X100050951Y-101329373D02*
X99955713Y-101376992D01*
X99955713Y-101376992D02*
X99812856Y-101376992D01*
X100431904Y-100710325D02*
X100812856Y-100710325D01*
X100574761Y-100376992D02*
X100574761Y-101234134D01*
X100574761Y-101234134D02*
X100622380Y-101329373D01*
X100622380Y-101329373D02*
X100717618Y-101376992D01*
X100717618Y-101376992D02*
X100812856Y-101376992D01*
X101289047Y-101376992D02*
X101193809Y-101329373D01*
X101193809Y-101329373D02*
X101146190Y-101281753D01*
X101146190Y-101281753D02*
X101098571Y-101186515D01*
X101098571Y-101186515D02*
X101098571Y-100900801D01*
X101098571Y-100900801D02*
X101146190Y-100805563D01*
X101146190Y-100805563D02*
X101193809Y-100757944D01*
X101193809Y-100757944D02*
X101289047Y-100710325D01*
X101289047Y-100710325D02*
X101431904Y-100710325D01*
X101431904Y-100710325D02*
X101527142Y-100757944D01*
X101527142Y-100757944D02*
X101574761Y-100805563D01*
X101574761Y-100805563D02*
X101622380Y-100900801D01*
X101622380Y-100900801D02*
X101622380Y-101186515D01*
X101622380Y-101186515D02*
X101574761Y-101281753D01*
X101574761Y-101281753D02*
X101527142Y-101329373D01*
X101527142Y-101329373D02*
X101431904Y-101376992D01*
X101431904Y-101376992D02*
X101289047Y-101376992D01*
X102050952Y-101376992D02*
X102050952Y-100710325D01*
X102050952Y-100900801D02*
X102098571Y-100805563D01*
X102098571Y-100805563D02*
X102146190Y-100757944D01*
X102146190Y-100757944D02*
X102241428Y-100710325D01*
X102241428Y-100710325D02*
X102336666Y-100710325D01*
X103003333Y-100853182D02*
X102670000Y-100853182D01*
X102670000Y-101376992D02*
X102670000Y-100376992D01*
X102670000Y-100376992D02*
X103146190Y-100376992D01*
X104003333Y-101376992D02*
X103527143Y-101376992D01*
X103527143Y-101376992D02*
X103527143Y-100376992D01*
X104860476Y-101376992D02*
X104289048Y-101376992D01*
X104574762Y-101376992D02*
X104574762Y-100376992D01*
X104574762Y-100376992D02*
X104479524Y-100519849D01*
X104479524Y-100519849D02*
X104384286Y-100615087D01*
X104384286Y-100615087D02*
X104289048Y-100662706D01*
X165602854Y-126881420D02*
X165650473Y-126738563D01*
X165650473Y-126738563D02*
X165698092Y-126690944D01*
X165698092Y-126690944D02*
X165793330Y-126643325D01*
X165793330Y-126643325D02*
X165936187Y-126643325D01*
X165936187Y-126643325D02*
X166031425Y-126690944D01*
X166031425Y-126690944D02*
X166079045Y-126738563D01*
X166079045Y-126738563D02*
X166126664Y-126833801D01*
X166126664Y-126833801D02*
X166126664Y-127214753D01*
X166126664Y-127214753D02*
X165126664Y-127214753D01*
X165126664Y-127214753D02*
X165126664Y-126881420D01*
X165126664Y-126881420D02*
X165174283Y-126786182D01*
X165174283Y-126786182D02*
X165221902Y-126738563D01*
X165221902Y-126738563D02*
X165317140Y-126690944D01*
X165317140Y-126690944D02*
X165412378Y-126690944D01*
X165412378Y-126690944D02*
X165507616Y-126738563D01*
X165507616Y-126738563D02*
X165555235Y-126786182D01*
X165555235Y-126786182D02*
X165602854Y-126881420D01*
X165602854Y-126881420D02*
X165602854Y-127214753D01*
X165459997Y-125786182D02*
X166126664Y-125786182D01*
X165459997Y-126214753D02*
X165983806Y-126214753D01*
X165983806Y-126214753D02*
X166079045Y-126167134D01*
X166079045Y-126167134D02*
X166126664Y-126071896D01*
X166126664Y-126071896D02*
X166126664Y-125929039D01*
X166126664Y-125929039D02*
X166079045Y-125833801D01*
X166079045Y-125833801D02*
X166031425Y-125786182D01*
X166079045Y-124881420D02*
X166126664Y-124976658D01*
X166126664Y-124976658D02*
X166126664Y-125167134D01*
X166126664Y-125167134D02*
X166079045Y-125262372D01*
X166079045Y-125262372D02*
X166031425Y-125309991D01*
X166031425Y-125309991D02*
X165936187Y-125357610D01*
X165936187Y-125357610D02*
X165650473Y-125357610D01*
X165650473Y-125357610D02*
X165555235Y-125309991D01*
X165555235Y-125309991D02*
X165507616Y-125262372D01*
X165507616Y-125262372D02*
X165459997Y-125167134D01*
X165459997Y-125167134D02*
X165459997Y-124976658D01*
X165459997Y-124976658D02*
X165507616Y-124881420D01*
X166126664Y-124452848D02*
X165126664Y-124452848D01*
X165745711Y-124357610D02*
X166126664Y-124071896D01*
X165459997Y-124071896D02*
X165840949Y-124452848D01*
X166221902Y-123881420D02*
X166221902Y-123119515D01*
X165126664Y-122690943D02*
X165126664Y-122500467D01*
X165126664Y-122500467D02*
X165174283Y-122405229D01*
X165174283Y-122405229D02*
X165269521Y-122309991D01*
X165269521Y-122309991D02*
X165459997Y-122262372D01*
X165459997Y-122262372D02*
X165793330Y-122262372D01*
X165793330Y-122262372D02*
X165983806Y-122309991D01*
X165983806Y-122309991D02*
X166079045Y-122405229D01*
X166079045Y-122405229D02*
X166126664Y-122500467D01*
X166126664Y-122500467D02*
X166126664Y-122690943D01*
X166126664Y-122690943D02*
X166079045Y-122786181D01*
X166079045Y-122786181D02*
X165983806Y-122881419D01*
X165983806Y-122881419D02*
X165793330Y-122929038D01*
X165793330Y-122929038D02*
X165459997Y-122929038D01*
X165459997Y-122929038D02*
X165269521Y-122881419D01*
X165269521Y-122881419D02*
X165174283Y-122786181D01*
X165174283Y-122786181D02*
X165126664Y-122690943D01*
X165126664Y-121833800D02*
X165936187Y-121833800D01*
X165936187Y-121833800D02*
X166031425Y-121786181D01*
X166031425Y-121786181D02*
X166079045Y-121738562D01*
X166079045Y-121738562D02*
X166126664Y-121643324D01*
X166126664Y-121643324D02*
X166126664Y-121452848D01*
X166126664Y-121452848D02*
X166079045Y-121357610D01*
X166079045Y-121357610D02*
X166031425Y-121309991D01*
X166031425Y-121309991D02*
X165936187Y-121262372D01*
X165936187Y-121262372D02*
X165126664Y-121262372D01*
X165126664Y-120929038D02*
X165126664Y-120357610D01*
X166126664Y-120643324D02*
X165126664Y-120643324D01*
X165745711Y-120024276D02*
X165745711Y-119262372D01*
X166126664Y-118262372D02*
X166126664Y-118833800D01*
X166126664Y-118548086D02*
X165126664Y-118548086D01*
X165126664Y-118548086D02*
X165269521Y-118643324D01*
X165269521Y-118643324D02*
X165364759Y-118738562D01*
X165364759Y-118738562D02*
X165412378Y-118833800D01*
X174013951Y-113406992D02*
X174013951Y-112406992D01*
X174013951Y-112406992D02*
X174347284Y-113121277D01*
X174347284Y-113121277D02*
X174680617Y-112406992D01*
X174680617Y-112406992D02*
X174680617Y-113406992D01*
X175299665Y-113406992D02*
X175204427Y-113359373D01*
X175204427Y-113359373D02*
X175156808Y-113311753D01*
X175156808Y-113311753D02*
X175109189Y-113216515D01*
X175109189Y-113216515D02*
X175109189Y-112930801D01*
X175109189Y-112930801D02*
X175156808Y-112835563D01*
X175156808Y-112835563D02*
X175204427Y-112787944D01*
X175204427Y-112787944D02*
X175299665Y-112740325D01*
X175299665Y-112740325D02*
X175442522Y-112740325D01*
X175442522Y-112740325D02*
X175537760Y-112787944D01*
X175537760Y-112787944D02*
X175585379Y-112835563D01*
X175585379Y-112835563D02*
X175632998Y-112930801D01*
X175632998Y-112930801D02*
X175632998Y-113216515D01*
X175632998Y-113216515D02*
X175585379Y-113311753D01*
X175585379Y-113311753D02*
X175537760Y-113359373D01*
X175537760Y-113359373D02*
X175442522Y-113406992D01*
X175442522Y-113406992D02*
X175299665Y-113406992D01*
X175918713Y-112740325D02*
X176299665Y-112740325D01*
X176061570Y-112406992D02*
X176061570Y-113264134D01*
X176061570Y-113264134D02*
X176109189Y-113359373D01*
X176109189Y-113359373D02*
X176204427Y-113406992D01*
X176204427Y-113406992D02*
X176299665Y-113406992D01*
X176775856Y-113406992D02*
X176680618Y-113359373D01*
X176680618Y-113359373D02*
X176632999Y-113311753D01*
X176632999Y-113311753D02*
X176585380Y-113216515D01*
X176585380Y-113216515D02*
X176585380Y-112930801D01*
X176585380Y-112930801D02*
X176632999Y-112835563D01*
X176632999Y-112835563D02*
X176680618Y-112787944D01*
X176680618Y-112787944D02*
X176775856Y-112740325D01*
X176775856Y-112740325D02*
X176918713Y-112740325D01*
X176918713Y-112740325D02*
X177013951Y-112787944D01*
X177013951Y-112787944D02*
X177061570Y-112835563D01*
X177061570Y-112835563D02*
X177109189Y-112930801D01*
X177109189Y-112930801D02*
X177109189Y-113216515D01*
X177109189Y-113216515D02*
X177061570Y-113311753D01*
X177061570Y-113311753D02*
X177013951Y-113359373D01*
X177013951Y-113359373D02*
X176918713Y-113406992D01*
X176918713Y-113406992D02*
X176775856Y-113406992D01*
X177537761Y-113406992D02*
X177537761Y-112740325D01*
X177537761Y-112930801D02*
X177585380Y-112835563D01*
X177585380Y-112835563D02*
X177632999Y-112787944D01*
X177632999Y-112787944D02*
X177728237Y-112740325D01*
X177728237Y-112740325D02*
X177823475Y-112740325D01*
X178490142Y-112883182D02*
X178156809Y-112883182D01*
X178156809Y-113406992D02*
X178156809Y-112406992D01*
X178156809Y-112406992D02*
X178632999Y-112406992D01*
X179585380Y-113406992D02*
X179252047Y-112930801D01*
X179013952Y-113406992D02*
X179013952Y-112406992D01*
X179013952Y-112406992D02*
X179394904Y-112406992D01*
X179394904Y-112406992D02*
X179490142Y-112454611D01*
X179490142Y-112454611D02*
X179537761Y-112502230D01*
X179537761Y-112502230D02*
X179585380Y-112597468D01*
X179585380Y-112597468D02*
X179585380Y-112740325D01*
X179585380Y-112740325D02*
X179537761Y-112835563D01*
X179537761Y-112835563D02*
X179490142Y-112883182D01*
X179490142Y-112883182D02*
X179394904Y-112930801D01*
X179394904Y-112930801D02*
X179013952Y-112930801D01*
X180537761Y-113406992D02*
X179966333Y-113406992D01*
X180252047Y-113406992D02*
X180252047Y-112406992D01*
X180252047Y-112406992D02*
X180156809Y-112549849D01*
X180156809Y-112549849D02*
X180061571Y-112645087D01*
X180061571Y-112645087D02*
X179966333Y-112692706D01*
X165602854Y-106214753D02*
X165650473Y-106071896D01*
X165650473Y-106071896D02*
X165698092Y-106024277D01*
X165698092Y-106024277D02*
X165793330Y-105976658D01*
X165793330Y-105976658D02*
X165936187Y-105976658D01*
X165936187Y-105976658D02*
X166031425Y-106024277D01*
X166031425Y-106024277D02*
X166079045Y-106071896D01*
X166079045Y-106071896D02*
X166126664Y-106167134D01*
X166126664Y-106167134D02*
X166126664Y-106548086D01*
X166126664Y-106548086D02*
X165126664Y-106548086D01*
X165126664Y-106548086D02*
X165126664Y-106214753D01*
X165126664Y-106214753D02*
X165174283Y-106119515D01*
X165174283Y-106119515D02*
X165221902Y-106071896D01*
X165221902Y-106071896D02*
X165317140Y-106024277D01*
X165317140Y-106024277D02*
X165412378Y-106024277D01*
X165412378Y-106024277D02*
X165507616Y-106071896D01*
X165507616Y-106071896D02*
X165555235Y-106119515D01*
X165555235Y-106119515D02*
X165602854Y-106214753D01*
X165602854Y-106214753D02*
X165602854Y-106548086D01*
X165459997Y-105119515D02*
X166126664Y-105119515D01*
X165459997Y-105548086D02*
X165983806Y-105548086D01*
X165983806Y-105548086D02*
X166079045Y-105500467D01*
X166079045Y-105500467D02*
X166126664Y-105405229D01*
X166126664Y-105405229D02*
X166126664Y-105262372D01*
X166126664Y-105262372D02*
X166079045Y-105167134D01*
X166079045Y-105167134D02*
X166031425Y-105119515D01*
X166079045Y-104214753D02*
X166126664Y-104309991D01*
X166126664Y-104309991D02*
X166126664Y-104500467D01*
X166126664Y-104500467D02*
X166079045Y-104595705D01*
X166079045Y-104595705D02*
X166031425Y-104643324D01*
X166031425Y-104643324D02*
X165936187Y-104690943D01*
X165936187Y-104690943D02*
X165650473Y-104690943D01*
X165650473Y-104690943D02*
X165555235Y-104643324D01*
X165555235Y-104643324D02*
X165507616Y-104595705D01*
X165507616Y-104595705D02*
X165459997Y-104500467D01*
X165459997Y-104500467D02*
X165459997Y-104309991D01*
X165459997Y-104309991D02*
X165507616Y-104214753D01*
X166126664Y-103786181D02*
X165126664Y-103786181D01*
X165745711Y-103690943D02*
X166126664Y-103405229D01*
X165459997Y-103405229D02*
X165840949Y-103786181D01*
X166221902Y-103214753D02*
X166221902Y-102452848D01*
X166126664Y-102214752D02*
X165126664Y-102214752D01*
X166126664Y-101738562D02*
X165126664Y-101738562D01*
X165126664Y-101738562D02*
X166126664Y-101167134D01*
X166126664Y-101167134D02*
X165126664Y-101167134D01*
X165745711Y-100690943D02*
X165745711Y-99929039D01*
X166126664Y-98929039D02*
X166126664Y-99500467D01*
X166126664Y-99214753D02*
X165126664Y-99214753D01*
X165126664Y-99214753D02*
X165269521Y-99309991D01*
X165269521Y-99309991D02*
X165364759Y-99405229D01*
X165364759Y-99405229D02*
X165412378Y-99500467D01*
X141721200Y-143111809D02*
X141721200Y-142540381D01*
X142721200Y-142826095D02*
X141721200Y-142826095D01*
X142197390Y-141873714D02*
X142245009Y-141730857D01*
X142245009Y-141730857D02*
X142292628Y-141683238D01*
X142292628Y-141683238D02*
X142387866Y-141635619D01*
X142387866Y-141635619D02*
X142530723Y-141635619D01*
X142530723Y-141635619D02*
X142625961Y-141683238D01*
X142625961Y-141683238D02*
X142673581Y-141730857D01*
X142673581Y-141730857D02*
X142721200Y-141826095D01*
X142721200Y-141826095D02*
X142721200Y-142207047D01*
X142721200Y-142207047D02*
X141721200Y-142207047D01*
X141721200Y-142207047D02*
X141721200Y-141873714D01*
X141721200Y-141873714D02*
X141768819Y-141778476D01*
X141768819Y-141778476D02*
X141816438Y-141730857D01*
X141816438Y-141730857D02*
X141911676Y-141683238D01*
X141911676Y-141683238D02*
X142006914Y-141683238D01*
X142006914Y-141683238D02*
X142102152Y-141730857D01*
X142102152Y-141730857D02*
X142149771Y-141778476D01*
X142149771Y-141778476D02*
X142197390Y-141873714D01*
X142197390Y-141873714D02*
X142197390Y-142207047D01*
X141721200Y-140778476D02*
X141721200Y-140968952D01*
X141721200Y-140968952D02*
X141768819Y-141064190D01*
X141768819Y-141064190D02*
X141816438Y-141111809D01*
X141816438Y-141111809D02*
X141959295Y-141207047D01*
X141959295Y-141207047D02*
X142149771Y-141254666D01*
X142149771Y-141254666D02*
X142530723Y-141254666D01*
X142530723Y-141254666D02*
X142625961Y-141207047D01*
X142625961Y-141207047D02*
X142673581Y-141159428D01*
X142673581Y-141159428D02*
X142721200Y-141064190D01*
X142721200Y-141064190D02*
X142721200Y-140873714D01*
X142721200Y-140873714D02*
X142673581Y-140778476D01*
X142673581Y-140778476D02*
X142625961Y-140730857D01*
X142625961Y-140730857D02*
X142530723Y-140683238D01*
X142530723Y-140683238D02*
X142292628Y-140683238D01*
X142292628Y-140683238D02*
X142197390Y-140730857D01*
X142197390Y-140730857D02*
X142149771Y-140778476D01*
X142149771Y-140778476D02*
X142102152Y-140873714D01*
X142102152Y-140873714D02*
X142102152Y-141064190D01*
X142102152Y-141064190D02*
X142149771Y-141159428D01*
X142149771Y-141159428D02*
X142197390Y-141207047D01*
X142197390Y-141207047D02*
X142292628Y-141254666D01*
X141721200Y-139826095D02*
X141721200Y-140016571D01*
X141721200Y-140016571D02*
X141768819Y-140111809D01*
X141768819Y-140111809D02*
X141816438Y-140159428D01*
X141816438Y-140159428D02*
X141959295Y-140254666D01*
X141959295Y-140254666D02*
X142149771Y-140302285D01*
X142149771Y-140302285D02*
X142530723Y-140302285D01*
X142530723Y-140302285D02*
X142625961Y-140254666D01*
X142625961Y-140254666D02*
X142673581Y-140207047D01*
X142673581Y-140207047D02*
X142721200Y-140111809D01*
X142721200Y-140111809D02*
X142721200Y-139921333D01*
X142721200Y-139921333D02*
X142673581Y-139826095D01*
X142673581Y-139826095D02*
X142625961Y-139778476D01*
X142625961Y-139778476D02*
X142530723Y-139730857D01*
X142530723Y-139730857D02*
X142292628Y-139730857D01*
X142292628Y-139730857D02*
X142197390Y-139778476D01*
X142197390Y-139778476D02*
X142149771Y-139826095D01*
X142149771Y-139826095D02*
X142102152Y-139921333D01*
X142102152Y-139921333D02*
X142102152Y-140111809D01*
X142102152Y-140111809D02*
X142149771Y-140207047D01*
X142149771Y-140207047D02*
X142197390Y-140254666D01*
X142197390Y-140254666D02*
X142292628Y-140302285D01*
X142721200Y-138778476D02*
X142721200Y-139349904D01*
X142721200Y-139064190D02*
X141721200Y-139064190D01*
X141721200Y-139064190D02*
X141864057Y-139159428D01*
X141864057Y-139159428D02*
X141959295Y-139254666D01*
X141959295Y-139254666D02*
X142006914Y-139349904D01*
X141816438Y-138397523D02*
X141768819Y-138349904D01*
X141768819Y-138349904D02*
X141721200Y-138254666D01*
X141721200Y-138254666D02*
X141721200Y-138016571D01*
X141721200Y-138016571D02*
X141768819Y-137921333D01*
X141768819Y-137921333D02*
X141816438Y-137873714D01*
X141816438Y-137873714D02*
X141911676Y-137826095D01*
X141911676Y-137826095D02*
X142006914Y-137826095D01*
X142006914Y-137826095D02*
X142149771Y-137873714D01*
X142149771Y-137873714D02*
X142721200Y-138445142D01*
X142721200Y-138445142D02*
X142721200Y-137826095D01*
X142197390Y-137064190D02*
X142197390Y-137397523D01*
X142721200Y-137397523D02*
X141721200Y-137397523D01*
X141721200Y-137397523D02*
X141721200Y-136921333D01*
X142721200Y-136540380D02*
X141721200Y-136540380D01*
X141721200Y-136540380D02*
X142721200Y-135968952D01*
X142721200Y-135968952D02*
X141721200Y-135968952D01*
X141768819Y-134968952D02*
X141721200Y-135064190D01*
X141721200Y-135064190D02*
X141721200Y-135207047D01*
X141721200Y-135207047D02*
X141768819Y-135349904D01*
X141768819Y-135349904D02*
X141864057Y-135445142D01*
X141864057Y-135445142D02*
X141959295Y-135492761D01*
X141959295Y-135492761D02*
X142149771Y-135540380D01*
X142149771Y-135540380D02*
X142292628Y-135540380D01*
X142292628Y-135540380D02*
X142483104Y-135492761D01*
X142483104Y-135492761D02*
X142578342Y-135445142D01*
X142578342Y-135445142D02*
X142673581Y-135349904D01*
X142673581Y-135349904D02*
X142721200Y-135207047D01*
X142721200Y-135207047D02*
X142721200Y-135111809D01*
X142721200Y-135111809D02*
X142673581Y-134968952D01*
X142673581Y-134968952D02*
X142625961Y-134921333D01*
X142625961Y-134921333D02*
X142292628Y-134921333D01*
X142292628Y-134921333D02*
X142292628Y-135111809D01*
X142721200Y-133921333D02*
X142245009Y-134254666D01*
X142721200Y-134492761D02*
X141721200Y-134492761D01*
X141721200Y-134492761D02*
X141721200Y-134111809D01*
X141721200Y-134111809D02*
X141768819Y-134016571D01*
X141768819Y-134016571D02*
X141816438Y-133968952D01*
X141816438Y-133968952D02*
X141911676Y-133921333D01*
X141911676Y-133921333D02*
X142054533Y-133921333D01*
X142054533Y-133921333D02*
X142149771Y-133968952D01*
X142149771Y-133968952D02*
X142197390Y-134016571D01*
X142197390Y-134016571D02*
X142245009Y-134111809D01*
X142245009Y-134111809D02*
X142245009Y-134492761D01*
X142721200Y-132968952D02*
X142721200Y-133540380D01*
X142721200Y-133254666D02*
X141721200Y-133254666D01*
X141721200Y-133254666D02*
X141864057Y-133349904D01*
X141864057Y-133349904D02*
X141959295Y-133445142D01*
X141959295Y-133445142D02*
X142006914Y-133540380D01*
X155062854Y-126881420D02*
X155110473Y-126738563D01*
X155110473Y-126738563D02*
X155158092Y-126690944D01*
X155158092Y-126690944D02*
X155253330Y-126643325D01*
X155253330Y-126643325D02*
X155396187Y-126643325D01*
X155396187Y-126643325D02*
X155491425Y-126690944D01*
X155491425Y-126690944D02*
X155539045Y-126738563D01*
X155539045Y-126738563D02*
X155586664Y-126833801D01*
X155586664Y-126833801D02*
X155586664Y-127214753D01*
X155586664Y-127214753D02*
X154586664Y-127214753D01*
X154586664Y-127214753D02*
X154586664Y-126881420D01*
X154586664Y-126881420D02*
X154634283Y-126786182D01*
X154634283Y-126786182D02*
X154681902Y-126738563D01*
X154681902Y-126738563D02*
X154777140Y-126690944D01*
X154777140Y-126690944D02*
X154872378Y-126690944D01*
X154872378Y-126690944D02*
X154967616Y-126738563D01*
X154967616Y-126738563D02*
X155015235Y-126786182D01*
X155015235Y-126786182D02*
X155062854Y-126881420D01*
X155062854Y-126881420D02*
X155062854Y-127214753D01*
X154919997Y-125786182D02*
X155586664Y-125786182D01*
X154919997Y-126214753D02*
X155443806Y-126214753D01*
X155443806Y-126214753D02*
X155539045Y-126167134D01*
X155539045Y-126167134D02*
X155586664Y-126071896D01*
X155586664Y-126071896D02*
X155586664Y-125929039D01*
X155586664Y-125929039D02*
X155539045Y-125833801D01*
X155539045Y-125833801D02*
X155491425Y-125786182D01*
X155539045Y-124881420D02*
X155586664Y-124976658D01*
X155586664Y-124976658D02*
X155586664Y-125167134D01*
X155586664Y-125167134D02*
X155539045Y-125262372D01*
X155539045Y-125262372D02*
X155491425Y-125309991D01*
X155491425Y-125309991D02*
X155396187Y-125357610D01*
X155396187Y-125357610D02*
X155110473Y-125357610D01*
X155110473Y-125357610D02*
X155015235Y-125309991D01*
X155015235Y-125309991D02*
X154967616Y-125262372D01*
X154967616Y-125262372D02*
X154919997Y-125167134D01*
X154919997Y-125167134D02*
X154919997Y-124976658D01*
X154919997Y-124976658D02*
X154967616Y-124881420D01*
X155586664Y-124452848D02*
X154586664Y-124452848D01*
X155205711Y-124357610D02*
X155586664Y-124071896D01*
X154919997Y-124071896D02*
X155300949Y-124452848D01*
X155681902Y-123881420D02*
X155681902Y-123119515D01*
X154586664Y-122690943D02*
X154586664Y-122500467D01*
X154586664Y-122500467D02*
X154634283Y-122405229D01*
X154634283Y-122405229D02*
X154729521Y-122309991D01*
X154729521Y-122309991D02*
X154919997Y-122262372D01*
X154919997Y-122262372D02*
X155253330Y-122262372D01*
X155253330Y-122262372D02*
X155443806Y-122309991D01*
X155443806Y-122309991D02*
X155539045Y-122405229D01*
X155539045Y-122405229D02*
X155586664Y-122500467D01*
X155586664Y-122500467D02*
X155586664Y-122690943D01*
X155586664Y-122690943D02*
X155539045Y-122786181D01*
X155539045Y-122786181D02*
X155443806Y-122881419D01*
X155443806Y-122881419D02*
X155253330Y-122929038D01*
X155253330Y-122929038D02*
X154919997Y-122929038D01*
X154919997Y-122929038D02*
X154729521Y-122881419D01*
X154729521Y-122881419D02*
X154634283Y-122786181D01*
X154634283Y-122786181D02*
X154586664Y-122690943D01*
X154586664Y-121833800D02*
X155396187Y-121833800D01*
X155396187Y-121833800D02*
X155491425Y-121786181D01*
X155491425Y-121786181D02*
X155539045Y-121738562D01*
X155539045Y-121738562D02*
X155586664Y-121643324D01*
X155586664Y-121643324D02*
X155586664Y-121452848D01*
X155586664Y-121452848D02*
X155539045Y-121357610D01*
X155539045Y-121357610D02*
X155491425Y-121309991D01*
X155491425Y-121309991D02*
X155396187Y-121262372D01*
X155396187Y-121262372D02*
X154586664Y-121262372D01*
X154586664Y-120929038D02*
X154586664Y-120357610D01*
X155586664Y-120643324D02*
X154586664Y-120643324D01*
X155205711Y-120024276D02*
X155205711Y-119262372D01*
X155586664Y-119643324D02*
X154824759Y-119643324D01*
X155586664Y-118262372D02*
X155586664Y-118833800D01*
X155586664Y-118548086D02*
X154586664Y-118548086D01*
X154586664Y-118548086D02*
X154729521Y-118643324D01*
X154729521Y-118643324D02*
X154824759Y-118738562D01*
X154824759Y-118738562D02*
X154872378Y-118833800D01*
X137262857Y-114835112D02*
X137262857Y-113835112D01*
X137262857Y-113835112D02*
X137643809Y-113835112D01*
X137643809Y-113835112D02*
X137739047Y-113882731D01*
X137739047Y-113882731D02*
X137786666Y-113930350D01*
X137786666Y-113930350D02*
X137834285Y-114025588D01*
X137834285Y-114025588D02*
X137834285Y-114168445D01*
X137834285Y-114168445D02*
X137786666Y-114263683D01*
X137786666Y-114263683D02*
X137739047Y-114311302D01*
X137739047Y-114311302D02*
X137643809Y-114358921D01*
X137643809Y-114358921D02*
X137262857Y-114358921D01*
X138262857Y-114835112D02*
X138262857Y-114168445D01*
X138262857Y-113835112D02*
X138215238Y-113882731D01*
X138215238Y-113882731D02*
X138262857Y-113930350D01*
X138262857Y-113930350D02*
X138310476Y-113882731D01*
X138310476Y-113882731D02*
X138262857Y-113835112D01*
X138262857Y-113835112D02*
X138262857Y-113930350D01*
X139167618Y-114787493D02*
X139072380Y-114835112D01*
X139072380Y-114835112D02*
X138881904Y-114835112D01*
X138881904Y-114835112D02*
X138786666Y-114787493D01*
X138786666Y-114787493D02*
X138739047Y-114739873D01*
X138739047Y-114739873D02*
X138691428Y-114644635D01*
X138691428Y-114644635D02*
X138691428Y-114358921D01*
X138691428Y-114358921D02*
X138739047Y-114263683D01*
X138739047Y-114263683D02*
X138786666Y-114216064D01*
X138786666Y-114216064D02*
X138881904Y-114168445D01*
X138881904Y-114168445D02*
X139072380Y-114168445D01*
X139072380Y-114168445D02*
X139167618Y-114216064D01*
X139739047Y-114835112D02*
X139643809Y-114787493D01*
X139643809Y-114787493D02*
X139596190Y-114739873D01*
X139596190Y-114739873D02*
X139548571Y-114644635D01*
X139548571Y-114644635D02*
X139548571Y-114358921D01*
X139548571Y-114358921D02*
X139596190Y-114263683D01*
X139596190Y-114263683D02*
X139643809Y-114216064D01*
X139643809Y-114216064D02*
X139739047Y-114168445D01*
X139739047Y-114168445D02*
X139881904Y-114168445D01*
X139881904Y-114168445D02*
X139977142Y-114216064D01*
X139977142Y-114216064D02*
X140024761Y-114263683D01*
X140024761Y-114263683D02*
X140072380Y-114358921D01*
X140072380Y-114358921D02*
X140072380Y-114644635D01*
X140072380Y-114644635D02*
X140024761Y-114739873D01*
X140024761Y-114739873D02*
X139977142Y-114787493D01*
X139977142Y-114787493D02*
X139881904Y-114835112D01*
X139881904Y-114835112D02*
X139739047Y-114835112D01*
X141072380Y-114835112D02*
X140739047Y-114358921D01*
X140500952Y-114835112D02*
X140500952Y-113835112D01*
X140500952Y-113835112D02*
X140881904Y-113835112D01*
X140881904Y-113835112D02*
X140977142Y-113882731D01*
X140977142Y-113882731D02*
X141024761Y-113930350D01*
X141024761Y-113930350D02*
X141072380Y-114025588D01*
X141072380Y-114025588D02*
X141072380Y-114168445D01*
X141072380Y-114168445D02*
X141024761Y-114263683D01*
X141024761Y-114263683D02*
X140977142Y-114311302D01*
X140977142Y-114311302D02*
X140881904Y-114358921D01*
X140881904Y-114358921D02*
X140500952Y-114358921D01*
X142024761Y-114835112D02*
X141453333Y-114835112D01*
X141739047Y-114835112D02*
X141739047Y-113835112D01*
X141739047Y-113835112D02*
X141643809Y-113977969D01*
X141643809Y-113977969D02*
X141548571Y-114073207D01*
X141548571Y-114073207D02*
X141453333Y-114120826D01*
X173942523Y-132736992D02*
X173942523Y-131736992D01*
X173942523Y-131736992D02*
X174275856Y-132451277D01*
X174275856Y-132451277D02*
X174609189Y-131736992D01*
X174609189Y-131736992D02*
X174609189Y-132736992D01*
X175228237Y-132736992D02*
X175132999Y-132689373D01*
X175132999Y-132689373D02*
X175085380Y-132641753D01*
X175085380Y-132641753D02*
X175037761Y-132546515D01*
X175037761Y-132546515D02*
X175037761Y-132260801D01*
X175037761Y-132260801D02*
X175085380Y-132165563D01*
X175085380Y-132165563D02*
X175132999Y-132117944D01*
X175132999Y-132117944D02*
X175228237Y-132070325D01*
X175228237Y-132070325D02*
X175371094Y-132070325D01*
X175371094Y-132070325D02*
X175466332Y-132117944D01*
X175466332Y-132117944D02*
X175513951Y-132165563D01*
X175513951Y-132165563D02*
X175561570Y-132260801D01*
X175561570Y-132260801D02*
X175561570Y-132546515D01*
X175561570Y-132546515D02*
X175513951Y-132641753D01*
X175513951Y-132641753D02*
X175466332Y-132689373D01*
X175466332Y-132689373D02*
X175371094Y-132736992D01*
X175371094Y-132736992D02*
X175228237Y-132736992D01*
X175847285Y-132070325D02*
X176228237Y-132070325D01*
X175990142Y-131736992D02*
X175990142Y-132594134D01*
X175990142Y-132594134D02*
X176037761Y-132689373D01*
X176037761Y-132689373D02*
X176132999Y-132736992D01*
X176132999Y-132736992D02*
X176228237Y-132736992D01*
X176704428Y-132736992D02*
X176609190Y-132689373D01*
X176609190Y-132689373D02*
X176561571Y-132641753D01*
X176561571Y-132641753D02*
X176513952Y-132546515D01*
X176513952Y-132546515D02*
X176513952Y-132260801D01*
X176513952Y-132260801D02*
X176561571Y-132165563D01*
X176561571Y-132165563D02*
X176609190Y-132117944D01*
X176609190Y-132117944D02*
X176704428Y-132070325D01*
X176704428Y-132070325D02*
X176847285Y-132070325D01*
X176847285Y-132070325D02*
X176942523Y-132117944D01*
X176942523Y-132117944D02*
X176990142Y-132165563D01*
X176990142Y-132165563D02*
X177037761Y-132260801D01*
X177037761Y-132260801D02*
X177037761Y-132546515D01*
X177037761Y-132546515D02*
X176990142Y-132641753D01*
X176990142Y-132641753D02*
X176942523Y-132689373D01*
X176942523Y-132689373D02*
X176847285Y-132736992D01*
X176847285Y-132736992D02*
X176704428Y-132736992D01*
X177466333Y-132736992D02*
X177466333Y-132070325D01*
X177466333Y-132260801D02*
X177513952Y-132165563D01*
X177513952Y-132165563D02*
X177561571Y-132117944D01*
X177561571Y-132117944D02*
X177656809Y-132070325D01*
X177656809Y-132070325D02*
X177752047Y-132070325D01*
X178418714Y-132213182D02*
X178561571Y-132260801D01*
X178561571Y-132260801D02*
X178609190Y-132308420D01*
X178609190Y-132308420D02*
X178656809Y-132403658D01*
X178656809Y-132403658D02*
X178656809Y-132546515D01*
X178656809Y-132546515D02*
X178609190Y-132641753D01*
X178609190Y-132641753D02*
X178561571Y-132689373D01*
X178561571Y-132689373D02*
X178466333Y-132736992D01*
X178466333Y-132736992D02*
X178085381Y-132736992D01*
X178085381Y-132736992D02*
X178085381Y-131736992D01*
X178085381Y-131736992D02*
X178418714Y-131736992D01*
X178418714Y-131736992D02*
X178513952Y-131784611D01*
X178513952Y-131784611D02*
X178561571Y-131832230D01*
X178561571Y-131832230D02*
X178609190Y-131927468D01*
X178609190Y-131927468D02*
X178609190Y-132022706D01*
X178609190Y-132022706D02*
X178561571Y-132117944D01*
X178561571Y-132117944D02*
X178513952Y-132165563D01*
X178513952Y-132165563D02*
X178418714Y-132213182D01*
X178418714Y-132213182D02*
X178085381Y-132213182D01*
X179656809Y-132736992D02*
X179323476Y-132260801D01*
X179085381Y-132736992D02*
X179085381Y-131736992D01*
X179085381Y-131736992D02*
X179466333Y-131736992D01*
X179466333Y-131736992D02*
X179561571Y-131784611D01*
X179561571Y-131784611D02*
X179609190Y-131832230D01*
X179609190Y-131832230D02*
X179656809Y-131927468D01*
X179656809Y-131927468D02*
X179656809Y-132070325D01*
X179656809Y-132070325D02*
X179609190Y-132165563D01*
X179609190Y-132165563D02*
X179561571Y-132213182D01*
X179561571Y-132213182D02*
X179466333Y-132260801D01*
X179466333Y-132260801D02*
X179085381Y-132260801D01*
X180609190Y-132736992D02*
X180037762Y-132736992D01*
X180323476Y-132736992D02*
X180323476Y-131736992D01*
X180323476Y-131736992D02*
X180228238Y-131879849D01*
X180228238Y-131879849D02*
X180133000Y-131975087D01*
X180133000Y-131975087D02*
X180037762Y-132022706D01*
X141721200Y-126928571D02*
X141721200Y-126357143D01*
X142721200Y-126642857D02*
X141721200Y-126642857D01*
X142197390Y-125690476D02*
X142245009Y-125547619D01*
X142245009Y-125547619D02*
X142292628Y-125500000D01*
X142292628Y-125500000D02*
X142387866Y-125452381D01*
X142387866Y-125452381D02*
X142530723Y-125452381D01*
X142530723Y-125452381D02*
X142625961Y-125500000D01*
X142625961Y-125500000D02*
X142673581Y-125547619D01*
X142673581Y-125547619D02*
X142721200Y-125642857D01*
X142721200Y-125642857D02*
X142721200Y-126023809D01*
X142721200Y-126023809D02*
X141721200Y-126023809D01*
X141721200Y-126023809D02*
X141721200Y-125690476D01*
X141721200Y-125690476D02*
X141768819Y-125595238D01*
X141768819Y-125595238D02*
X141816438Y-125547619D01*
X141816438Y-125547619D02*
X141911676Y-125500000D01*
X141911676Y-125500000D02*
X142006914Y-125500000D01*
X142006914Y-125500000D02*
X142102152Y-125547619D01*
X142102152Y-125547619D02*
X142149771Y-125595238D01*
X142149771Y-125595238D02*
X142197390Y-125690476D01*
X142197390Y-125690476D02*
X142197390Y-126023809D01*
X141721200Y-124595238D02*
X141721200Y-124785714D01*
X141721200Y-124785714D02*
X141768819Y-124880952D01*
X141768819Y-124880952D02*
X141816438Y-124928571D01*
X141816438Y-124928571D02*
X141959295Y-125023809D01*
X141959295Y-125023809D02*
X142149771Y-125071428D01*
X142149771Y-125071428D02*
X142530723Y-125071428D01*
X142530723Y-125071428D02*
X142625961Y-125023809D01*
X142625961Y-125023809D02*
X142673581Y-124976190D01*
X142673581Y-124976190D02*
X142721200Y-124880952D01*
X142721200Y-124880952D02*
X142721200Y-124690476D01*
X142721200Y-124690476D02*
X142673581Y-124595238D01*
X142673581Y-124595238D02*
X142625961Y-124547619D01*
X142625961Y-124547619D02*
X142530723Y-124500000D01*
X142530723Y-124500000D02*
X142292628Y-124500000D01*
X142292628Y-124500000D02*
X142197390Y-124547619D01*
X142197390Y-124547619D02*
X142149771Y-124595238D01*
X142149771Y-124595238D02*
X142102152Y-124690476D01*
X142102152Y-124690476D02*
X142102152Y-124880952D01*
X142102152Y-124880952D02*
X142149771Y-124976190D01*
X142149771Y-124976190D02*
X142197390Y-125023809D01*
X142197390Y-125023809D02*
X142292628Y-125071428D01*
X141721200Y-123642857D02*
X141721200Y-123833333D01*
X141721200Y-123833333D02*
X141768819Y-123928571D01*
X141768819Y-123928571D02*
X141816438Y-123976190D01*
X141816438Y-123976190D02*
X141959295Y-124071428D01*
X141959295Y-124071428D02*
X142149771Y-124119047D01*
X142149771Y-124119047D02*
X142530723Y-124119047D01*
X142530723Y-124119047D02*
X142625961Y-124071428D01*
X142625961Y-124071428D02*
X142673581Y-124023809D01*
X142673581Y-124023809D02*
X142721200Y-123928571D01*
X142721200Y-123928571D02*
X142721200Y-123738095D01*
X142721200Y-123738095D02*
X142673581Y-123642857D01*
X142673581Y-123642857D02*
X142625961Y-123595238D01*
X142625961Y-123595238D02*
X142530723Y-123547619D01*
X142530723Y-123547619D02*
X142292628Y-123547619D01*
X142292628Y-123547619D02*
X142197390Y-123595238D01*
X142197390Y-123595238D02*
X142149771Y-123642857D01*
X142149771Y-123642857D02*
X142102152Y-123738095D01*
X142102152Y-123738095D02*
X142102152Y-123928571D01*
X142102152Y-123928571D02*
X142149771Y-124023809D01*
X142149771Y-124023809D02*
X142197390Y-124071428D01*
X142197390Y-124071428D02*
X142292628Y-124119047D01*
X142721200Y-122595238D02*
X142721200Y-123166666D01*
X142721200Y-122880952D02*
X141721200Y-122880952D01*
X141721200Y-122880952D02*
X141864057Y-122976190D01*
X141864057Y-122976190D02*
X141959295Y-123071428D01*
X141959295Y-123071428D02*
X142006914Y-123166666D01*
X141816438Y-122214285D02*
X141768819Y-122166666D01*
X141768819Y-122166666D02*
X141721200Y-122071428D01*
X141721200Y-122071428D02*
X141721200Y-121833333D01*
X141721200Y-121833333D02*
X141768819Y-121738095D01*
X141768819Y-121738095D02*
X141816438Y-121690476D01*
X141816438Y-121690476D02*
X141911676Y-121642857D01*
X141911676Y-121642857D02*
X142006914Y-121642857D01*
X142006914Y-121642857D02*
X142149771Y-121690476D01*
X142149771Y-121690476D02*
X142721200Y-122261904D01*
X142721200Y-122261904D02*
X142721200Y-121642857D01*
X142197390Y-120880952D02*
X142197390Y-121214285D01*
X142721200Y-121214285D02*
X141721200Y-121214285D01*
X141721200Y-121214285D02*
X141721200Y-120738095D01*
X142721200Y-120357142D02*
X141721200Y-120357142D01*
X141721200Y-120357142D02*
X142721200Y-119785714D01*
X142721200Y-119785714D02*
X141721200Y-119785714D01*
X141768819Y-118785714D02*
X141721200Y-118880952D01*
X141721200Y-118880952D02*
X141721200Y-119023809D01*
X141721200Y-119023809D02*
X141768819Y-119166666D01*
X141768819Y-119166666D02*
X141864057Y-119261904D01*
X141864057Y-119261904D02*
X141959295Y-119309523D01*
X141959295Y-119309523D02*
X142149771Y-119357142D01*
X142149771Y-119357142D02*
X142292628Y-119357142D01*
X142292628Y-119357142D02*
X142483104Y-119309523D01*
X142483104Y-119309523D02*
X142578342Y-119261904D01*
X142578342Y-119261904D02*
X142673581Y-119166666D01*
X142673581Y-119166666D02*
X142721200Y-119023809D01*
X142721200Y-119023809D02*
X142721200Y-118928571D01*
X142721200Y-118928571D02*
X142673581Y-118785714D01*
X142673581Y-118785714D02*
X142625961Y-118738095D01*
X142625961Y-118738095D02*
X142292628Y-118738095D01*
X142292628Y-118738095D02*
X142292628Y-118928571D01*
X142721200Y-117833333D02*
X142721200Y-118309523D01*
X142721200Y-118309523D02*
X141721200Y-118309523D01*
X142721200Y-116976190D02*
X142721200Y-117547618D01*
X142721200Y-117261904D02*
X141721200Y-117261904D01*
X141721200Y-117261904D02*
X141864057Y-117357142D01*
X141864057Y-117357142D02*
X141959295Y-117452380D01*
X141959295Y-117452380D02*
X142006914Y-117547618D01*
X145630057Y-47071428D02*
X145582438Y-47166666D01*
X145582438Y-47166666D02*
X145487200Y-47261904D01*
X145487200Y-47261904D02*
X145344342Y-47404761D01*
X145344342Y-47404761D02*
X145296723Y-47499999D01*
X145296723Y-47499999D02*
X145296723Y-47595237D01*
X145534819Y-47547618D02*
X145487200Y-47642856D01*
X145487200Y-47642856D02*
X145391961Y-47738094D01*
X145391961Y-47738094D02*
X145201485Y-47785713D01*
X145201485Y-47785713D02*
X144868152Y-47785713D01*
X144868152Y-47785713D02*
X144677676Y-47738094D01*
X144677676Y-47738094D02*
X144582438Y-47642856D01*
X144582438Y-47642856D02*
X144534819Y-47547618D01*
X144534819Y-47547618D02*
X144534819Y-47357142D01*
X144534819Y-47357142D02*
X144582438Y-47261904D01*
X144582438Y-47261904D02*
X144677676Y-47166666D01*
X144677676Y-47166666D02*
X144868152Y-47119047D01*
X144868152Y-47119047D02*
X145201485Y-47119047D01*
X145201485Y-47119047D02*
X145391961Y-47166666D01*
X145391961Y-47166666D02*
X145487200Y-47261904D01*
X145487200Y-47261904D02*
X145534819Y-47357142D01*
X145534819Y-47357142D02*
X145534819Y-47547618D01*
X144534819Y-46833332D02*
X144534819Y-46261904D01*
X145534819Y-46547618D02*
X144534819Y-46547618D01*
X145534819Y-45357142D02*
X145058628Y-45690475D01*
X145534819Y-45928570D02*
X144534819Y-45928570D01*
X144534819Y-45928570D02*
X144534819Y-45547618D01*
X144534819Y-45547618D02*
X144582438Y-45452380D01*
X144582438Y-45452380D02*
X144630057Y-45404761D01*
X144630057Y-45404761D02*
X144725295Y-45357142D01*
X144725295Y-45357142D02*
X144868152Y-45357142D01*
X144868152Y-45357142D02*
X144963390Y-45404761D01*
X144963390Y-45404761D02*
X145011009Y-45452380D01*
X145011009Y-45452380D02*
X145058628Y-45547618D01*
X145058628Y-45547618D02*
X145058628Y-45928570D01*
X145153866Y-44928570D02*
X145153866Y-44166666D01*
X144963390Y-43547618D02*
X144915771Y-43642856D01*
X144915771Y-43642856D02*
X144868152Y-43690475D01*
X144868152Y-43690475D02*
X144772914Y-43738094D01*
X144772914Y-43738094D02*
X144725295Y-43738094D01*
X144725295Y-43738094D02*
X144630057Y-43690475D01*
X144630057Y-43690475D02*
X144582438Y-43642856D01*
X144582438Y-43642856D02*
X144534819Y-43547618D01*
X144534819Y-43547618D02*
X144534819Y-43357142D01*
X144534819Y-43357142D02*
X144582438Y-43261904D01*
X144582438Y-43261904D02*
X144630057Y-43214285D01*
X144630057Y-43214285D02*
X144725295Y-43166666D01*
X144725295Y-43166666D02*
X144772914Y-43166666D01*
X144772914Y-43166666D02*
X144868152Y-43214285D01*
X144868152Y-43214285D02*
X144915771Y-43261904D01*
X144915771Y-43261904D02*
X144963390Y-43357142D01*
X144963390Y-43357142D02*
X144963390Y-43547618D01*
X144963390Y-43547618D02*
X145011009Y-43642856D01*
X145011009Y-43642856D02*
X145058628Y-43690475D01*
X145058628Y-43690475D02*
X145153866Y-43738094D01*
X145153866Y-43738094D02*
X145344342Y-43738094D01*
X145344342Y-43738094D02*
X145439580Y-43690475D01*
X145439580Y-43690475D02*
X145487200Y-43642856D01*
X145487200Y-43642856D02*
X145534819Y-43547618D01*
X145534819Y-43547618D02*
X145534819Y-43357142D01*
X145534819Y-43357142D02*
X145487200Y-43261904D01*
X145487200Y-43261904D02*
X145439580Y-43214285D01*
X145439580Y-43214285D02*
X145344342Y-43166666D01*
X145344342Y-43166666D02*
X145153866Y-43166666D01*
X145153866Y-43166666D02*
X145058628Y-43214285D01*
X145058628Y-43214285D02*
X145011009Y-43261904D01*
X145011009Y-43261904D02*
X144963390Y-43357142D01*
X145534819Y-42166666D02*
X145058628Y-42499999D01*
X145534819Y-42738094D02*
X144534819Y-42738094D01*
X144534819Y-42738094D02*
X144534819Y-42357142D01*
X144534819Y-42357142D02*
X144582438Y-42261904D01*
X144582438Y-42261904D02*
X144630057Y-42214285D01*
X144630057Y-42214285D02*
X144725295Y-42166666D01*
X144725295Y-42166666D02*
X144868152Y-42166666D01*
X144868152Y-42166666D02*
X144963390Y-42214285D01*
X144963390Y-42214285D02*
X145011009Y-42261904D01*
X145011009Y-42261904D02*
X145058628Y-42357142D01*
X145058628Y-42357142D02*
X145058628Y-42738094D01*
X145439580Y-41166666D02*
X145487200Y-41214285D01*
X145487200Y-41214285D02*
X145534819Y-41357142D01*
X145534819Y-41357142D02*
X145534819Y-41452380D01*
X145534819Y-41452380D02*
X145487200Y-41595237D01*
X145487200Y-41595237D02*
X145391961Y-41690475D01*
X145391961Y-41690475D02*
X145296723Y-41738094D01*
X145296723Y-41738094D02*
X145106247Y-41785713D01*
X145106247Y-41785713D02*
X144963390Y-41785713D01*
X144963390Y-41785713D02*
X144772914Y-41738094D01*
X144772914Y-41738094D02*
X144677676Y-41690475D01*
X144677676Y-41690475D02*
X144582438Y-41595237D01*
X144582438Y-41595237D02*
X144534819Y-41452380D01*
X144534819Y-41452380D02*
X144534819Y-41357142D01*
X144534819Y-41357142D02*
X144582438Y-41214285D01*
X144582438Y-41214285D02*
X144630057Y-41166666D01*
X145534819Y-40214285D02*
X145534819Y-40785713D01*
X145534819Y-40499999D02*
X144534819Y-40499999D01*
X144534819Y-40499999D02*
X144677676Y-40595237D01*
X144677676Y-40595237D02*
X144772914Y-40690475D01*
X144772914Y-40690475D02*
X144820533Y-40785713D01*
X155062854Y-106214753D02*
X155110473Y-106071896D01*
X155110473Y-106071896D02*
X155158092Y-106024277D01*
X155158092Y-106024277D02*
X155253330Y-105976658D01*
X155253330Y-105976658D02*
X155396187Y-105976658D01*
X155396187Y-105976658D02*
X155491425Y-106024277D01*
X155491425Y-106024277D02*
X155539045Y-106071896D01*
X155539045Y-106071896D02*
X155586664Y-106167134D01*
X155586664Y-106167134D02*
X155586664Y-106548086D01*
X155586664Y-106548086D02*
X154586664Y-106548086D01*
X154586664Y-106548086D02*
X154586664Y-106214753D01*
X154586664Y-106214753D02*
X154634283Y-106119515D01*
X154634283Y-106119515D02*
X154681902Y-106071896D01*
X154681902Y-106071896D02*
X154777140Y-106024277D01*
X154777140Y-106024277D02*
X154872378Y-106024277D01*
X154872378Y-106024277D02*
X154967616Y-106071896D01*
X154967616Y-106071896D02*
X155015235Y-106119515D01*
X155015235Y-106119515D02*
X155062854Y-106214753D01*
X155062854Y-106214753D02*
X155062854Y-106548086D01*
X154919997Y-105119515D02*
X155586664Y-105119515D01*
X154919997Y-105548086D02*
X155443806Y-105548086D01*
X155443806Y-105548086D02*
X155539045Y-105500467D01*
X155539045Y-105500467D02*
X155586664Y-105405229D01*
X155586664Y-105405229D02*
X155586664Y-105262372D01*
X155586664Y-105262372D02*
X155539045Y-105167134D01*
X155539045Y-105167134D02*
X155491425Y-105119515D01*
X155539045Y-104214753D02*
X155586664Y-104309991D01*
X155586664Y-104309991D02*
X155586664Y-104500467D01*
X155586664Y-104500467D02*
X155539045Y-104595705D01*
X155539045Y-104595705D02*
X155491425Y-104643324D01*
X155491425Y-104643324D02*
X155396187Y-104690943D01*
X155396187Y-104690943D02*
X155110473Y-104690943D01*
X155110473Y-104690943D02*
X155015235Y-104643324D01*
X155015235Y-104643324D02*
X154967616Y-104595705D01*
X154967616Y-104595705D02*
X154919997Y-104500467D01*
X154919997Y-104500467D02*
X154919997Y-104309991D01*
X154919997Y-104309991D02*
X154967616Y-104214753D01*
X155586664Y-103786181D02*
X154586664Y-103786181D01*
X155205711Y-103690943D02*
X155586664Y-103405229D01*
X154919997Y-103405229D02*
X155300949Y-103786181D01*
X155681902Y-103214753D02*
X155681902Y-102452848D01*
X155586664Y-102214752D02*
X154586664Y-102214752D01*
X155586664Y-101738562D02*
X154586664Y-101738562D01*
X154586664Y-101738562D02*
X155586664Y-101167134D01*
X155586664Y-101167134D02*
X154586664Y-101167134D01*
X155205711Y-100690943D02*
X155205711Y-99929039D01*
X155586664Y-100309991D02*
X154824759Y-100309991D01*
X155586664Y-98929039D02*
X155586664Y-99500467D01*
X155586664Y-99214753D02*
X154586664Y-99214753D01*
X154586664Y-99214753D02*
X154729521Y-99309991D01*
X154729521Y-99309991D02*
X154824759Y-99405229D01*
X154824759Y-99405229D02*
X154872378Y-99500467D01*
X149742380Y-97001009D02*
X149885237Y-97048628D01*
X149885237Y-97048628D02*
X149932856Y-97096247D01*
X149932856Y-97096247D02*
X149980475Y-97191485D01*
X149980475Y-97191485D02*
X149980475Y-97334342D01*
X149980475Y-97334342D02*
X149932856Y-97429580D01*
X149932856Y-97429580D02*
X149885237Y-97477200D01*
X149885237Y-97477200D02*
X149789999Y-97524819D01*
X149789999Y-97524819D02*
X149409047Y-97524819D01*
X149409047Y-97524819D02*
X149409047Y-96524819D01*
X149409047Y-96524819D02*
X149742380Y-96524819D01*
X149742380Y-96524819D02*
X149837618Y-96572438D01*
X149837618Y-96572438D02*
X149885237Y-96620057D01*
X149885237Y-96620057D02*
X149932856Y-96715295D01*
X149932856Y-96715295D02*
X149932856Y-96810533D01*
X149932856Y-96810533D02*
X149885237Y-96905771D01*
X149885237Y-96905771D02*
X149837618Y-96953390D01*
X149837618Y-96953390D02*
X149742380Y-97001009D01*
X149742380Y-97001009D02*
X149409047Y-97001009D01*
X150837618Y-97524819D02*
X150837618Y-97001009D01*
X150837618Y-97001009D02*
X150789999Y-96905771D01*
X150789999Y-96905771D02*
X150694761Y-96858152D01*
X150694761Y-96858152D02*
X150504285Y-96858152D01*
X150504285Y-96858152D02*
X150409047Y-96905771D01*
X150837618Y-97477200D02*
X150742380Y-97524819D01*
X150742380Y-97524819D02*
X150504285Y-97524819D01*
X150504285Y-97524819D02*
X150409047Y-97477200D01*
X150409047Y-97477200D02*
X150361428Y-97381961D01*
X150361428Y-97381961D02*
X150361428Y-97286723D01*
X150361428Y-97286723D02*
X150409047Y-97191485D01*
X150409047Y-97191485D02*
X150504285Y-97143866D01*
X150504285Y-97143866D02*
X150742380Y-97143866D01*
X150742380Y-97143866D02*
X150837618Y-97096247D01*
X151170952Y-96858152D02*
X151551904Y-96858152D01*
X151313809Y-96524819D02*
X151313809Y-97381961D01*
X151313809Y-97381961D02*
X151361428Y-97477200D01*
X151361428Y-97477200D02*
X151456666Y-97524819D01*
X151456666Y-97524819D02*
X151551904Y-97524819D01*
X151742381Y-96858152D02*
X152123333Y-96858152D01*
X151885238Y-96524819D02*
X151885238Y-97381961D01*
X151885238Y-97381961D02*
X151932857Y-97477200D01*
X151932857Y-97477200D02*
X152028095Y-97524819D01*
X152028095Y-97524819D02*
X152123333Y-97524819D01*
X152837619Y-97477200D02*
X152742381Y-97524819D01*
X152742381Y-97524819D02*
X152551905Y-97524819D01*
X152551905Y-97524819D02*
X152456667Y-97477200D01*
X152456667Y-97477200D02*
X152409048Y-97381961D01*
X152409048Y-97381961D02*
X152409048Y-97001009D01*
X152409048Y-97001009D02*
X152456667Y-96905771D01*
X152456667Y-96905771D02*
X152551905Y-96858152D01*
X152551905Y-96858152D02*
X152742381Y-96858152D01*
X152742381Y-96858152D02*
X152837619Y-96905771D01*
X152837619Y-96905771D02*
X152885238Y-97001009D01*
X152885238Y-97001009D02*
X152885238Y-97096247D01*
X152885238Y-97096247D02*
X152409048Y-97191485D01*
X153313810Y-97524819D02*
X153313810Y-96858152D01*
X153313810Y-97048628D02*
X153361429Y-96953390D01*
X153361429Y-96953390D02*
X153409048Y-96905771D01*
X153409048Y-96905771D02*
X153504286Y-96858152D01*
X153504286Y-96858152D02*
X153599524Y-96858152D01*
X153837620Y-96858152D02*
X154075715Y-97524819D01*
X154313810Y-96858152D02*
X154075715Y-97524819D01*
X154075715Y-97524819D02*
X153980477Y-97762914D01*
X153980477Y-97762914D02*
X153932858Y-97810533D01*
X153932858Y-97810533D02*
X153837620Y-97858152D01*
X155218572Y-97524819D02*
X154647144Y-97524819D01*
X154932858Y-97524819D02*
X154932858Y-96524819D01*
X154932858Y-96524819D02*
X154837620Y-96667676D01*
X154837620Y-96667676D02*
X154742382Y-96762914D01*
X154742382Y-96762914D02*
X154647144Y-96810533D01*
X119738095Y-61935112D02*
X119738095Y-60935112D01*
X119738095Y-60935112D02*
X120119047Y-60935112D01*
X120119047Y-60935112D02*
X120214285Y-60982731D01*
X120214285Y-60982731D02*
X120261904Y-61030350D01*
X120261904Y-61030350D02*
X120309523Y-61125588D01*
X120309523Y-61125588D02*
X120309523Y-61268445D01*
X120309523Y-61268445D02*
X120261904Y-61363683D01*
X120261904Y-61363683D02*
X120214285Y-61411302D01*
X120214285Y-61411302D02*
X120119047Y-61458921D01*
X120119047Y-61458921D02*
X119738095Y-61458921D01*
X120738095Y-61935112D02*
X120738095Y-61268445D01*
X120738095Y-60935112D02*
X120690476Y-60982731D01*
X120690476Y-60982731D02*
X120738095Y-61030350D01*
X120738095Y-61030350D02*
X120785714Y-60982731D01*
X120785714Y-60982731D02*
X120738095Y-60935112D01*
X120738095Y-60935112D02*
X120738095Y-61030350D01*
X121642856Y-61887493D02*
X121547618Y-61935112D01*
X121547618Y-61935112D02*
X121357142Y-61935112D01*
X121357142Y-61935112D02*
X121261904Y-61887493D01*
X121261904Y-61887493D02*
X121214285Y-61839873D01*
X121214285Y-61839873D02*
X121166666Y-61744635D01*
X121166666Y-61744635D02*
X121166666Y-61458921D01*
X121166666Y-61458921D02*
X121214285Y-61363683D01*
X121214285Y-61363683D02*
X121261904Y-61316064D01*
X121261904Y-61316064D02*
X121357142Y-61268445D01*
X121357142Y-61268445D02*
X121547618Y-61268445D01*
X121547618Y-61268445D02*
X121642856Y-61316064D01*
X122214285Y-61935112D02*
X122119047Y-61887493D01*
X122119047Y-61887493D02*
X122071428Y-61839873D01*
X122071428Y-61839873D02*
X122023809Y-61744635D01*
X122023809Y-61744635D02*
X122023809Y-61458921D01*
X122023809Y-61458921D02*
X122071428Y-61363683D01*
X122071428Y-61363683D02*
X122119047Y-61316064D01*
X122119047Y-61316064D02*
X122214285Y-61268445D01*
X122214285Y-61268445D02*
X122357142Y-61268445D01*
X122357142Y-61268445D02*
X122452380Y-61316064D01*
X122452380Y-61316064D02*
X122499999Y-61363683D01*
X122499999Y-61363683D02*
X122547618Y-61458921D01*
X122547618Y-61458921D02*
X122547618Y-61744635D01*
X122547618Y-61744635D02*
X122499999Y-61839873D01*
X122499999Y-61839873D02*
X122452380Y-61887493D01*
X122452380Y-61887493D02*
X122357142Y-61935112D01*
X122357142Y-61935112D02*
X122214285Y-61935112D01*
X123452380Y-61935112D02*
X122976190Y-61935112D01*
X122976190Y-61935112D02*
X122976190Y-60935112D01*
X124309523Y-61935112D02*
X123738095Y-61935112D01*
X124023809Y-61935112D02*
X124023809Y-60935112D01*
X124023809Y-60935112D02*
X123928571Y-61077969D01*
X123928571Y-61077969D02*
X123833333Y-61173207D01*
X123833333Y-61173207D02*
X123738095Y-61220826D01*
D11*
%TO.C,MotorBL1*%
X96470000Y-131292173D02*
X96470000Y-121252173D01*
X98830000Y-131292173D02*
X96470000Y-131292173D01*
X106870000Y-131292173D02*
X99430000Y-131292173D01*
X96470000Y-130672173D02*
X106870000Y-130672173D01*
X96470000Y-129172173D02*
X106870000Y-129172173D01*
X96470000Y-124272173D02*
X106870000Y-124272173D01*
X96470000Y-121252173D02*
X106870000Y-121252173D01*
X106870000Y-121252173D02*
X106870000Y-131292173D01*
X99570000Y-131902173D02*
X98690000Y-131902173D01*
X99130000Y-131292173D01*
X99570000Y-131902173D01*
G36*
X99570000Y-131902173D02*
G01*
X98690000Y-131902173D01*
X99130000Y-131292173D01*
X99570000Y-131902173D01*
G37*
%TO.C,MotorFL1*%
X99570000Y-112572173D02*
X98690000Y-112572173D01*
X99130000Y-111962173D01*
X99570000Y-112572173D01*
G36*
X99570000Y-112572173D02*
G01*
X98690000Y-112572173D01*
X99130000Y-111962173D01*
X99570000Y-112572173D01*
G37*
X106870000Y-101922173D02*
X106870000Y-111962173D01*
X96470000Y-101922173D02*
X106870000Y-101922173D01*
X96470000Y-104942173D02*
X106870000Y-104942173D01*
X96470000Y-109842173D02*
X106870000Y-109842173D01*
X96470000Y-111342173D02*
X106870000Y-111342173D01*
X106870000Y-111962173D02*
X99430000Y-111962173D01*
X98830000Y-111962173D02*
X96470000Y-111962173D01*
X96470000Y-111962173D02*
X96470000Y-101922173D01*
%TO.C,Buck_OUT-1*%
X159371845Y-121382373D02*
X159371845Y-124142373D01*
X162021845Y-121382373D02*
X159371845Y-121382373D01*
X162021845Y-121382373D02*
X162021845Y-124142373D01*
X162021845Y-124142373D02*
X159371845Y-124142373D01*
X163291845Y-121382373D02*
X164671845Y-121382373D01*
X164671845Y-121382373D02*
X164671845Y-122762373D01*
%TO.C,MotorFR1*%
X179792047Y-101912173D02*
X179352047Y-101302173D01*
X180232047Y-101302173D01*
X179792047Y-101912173D01*
G36*
X179792047Y-101912173D02*
G01*
X179352047Y-101302173D01*
X180232047Y-101302173D01*
X179792047Y-101912173D01*
G37*
X182452047Y-101912173D02*
X182452047Y-111952173D01*
X180092047Y-101912173D02*
X182452047Y-101912173D01*
X172052047Y-101912173D02*
X179492047Y-101912173D01*
X182452047Y-102532173D02*
X172052047Y-102532173D01*
X182452047Y-104032173D02*
X172052047Y-104032173D01*
X182452047Y-108932173D02*
X172052047Y-108932173D01*
X182452047Y-111952173D02*
X172052047Y-111952173D01*
X172052047Y-111952173D02*
X172052047Y-101912173D01*
%TO.C,Buck_IN-1*%
X159371845Y-101382373D02*
X159371845Y-104142373D01*
X162021845Y-101382373D02*
X159371845Y-101382373D01*
X162021845Y-101382373D02*
X162021845Y-104142373D01*
X162021845Y-104142373D02*
X159371845Y-104142373D01*
X163291845Y-101382373D02*
X164671845Y-101382373D01*
X164671845Y-101382373D02*
X164671845Y-102762373D01*
%TO.C,TB6612FNGR1*%
X120726381Y-136612762D02*
X120726381Y-139372762D01*
X138616381Y-136612762D02*
X120726381Y-136612762D01*
X138616381Y-136612762D02*
X138616381Y-139372762D01*
X138616381Y-139372762D02*
X120726381Y-139372762D01*
X139886381Y-136612762D02*
X141266381Y-136612762D01*
X141266381Y-136612762D02*
X141266381Y-137992762D01*
%TO.C,Buck_OUT+1*%
X148831845Y-121382373D02*
X148831845Y-124142373D01*
X151481845Y-121382373D02*
X148831845Y-121382373D01*
X151481845Y-121382373D02*
X151481845Y-124142373D01*
X151481845Y-124142373D02*
X148831845Y-124142373D01*
X152751845Y-121382373D02*
X154131845Y-121382373D01*
X154131845Y-121382373D02*
X154131845Y-122762373D01*
%TO.C,PicoR1*%
X138240000Y-110730293D02*
X138240000Y-62360293D01*
X141000000Y-62360293D02*
X138240000Y-62360293D01*
X141000000Y-110730293D02*
X138240000Y-110730293D01*
X141000000Y-110730293D02*
X141000000Y-62360293D01*
X141000000Y-112000293D02*
X141000000Y-113380293D01*
X141000000Y-113380293D02*
X139620000Y-113380293D01*
%TO.C,MotorBR1*%
X179792047Y-121242173D02*
X179352047Y-120632173D01*
X180232047Y-120632173D01*
X179792047Y-121242173D01*
G36*
X179792047Y-121242173D02*
G01*
X179352047Y-120632173D01*
X180232047Y-120632173D01*
X179792047Y-121242173D01*
G37*
X182452047Y-121242173D02*
X182452047Y-131282173D01*
X180092047Y-121242173D02*
X182452047Y-121242173D01*
X172052047Y-121242173D02*
X179492047Y-121242173D01*
X182452047Y-121862173D02*
X172052047Y-121862173D01*
X182452047Y-123362173D02*
X172052047Y-123362173D01*
X182452047Y-128262173D02*
X172052047Y-128262173D01*
X182452047Y-131282173D02*
X172052047Y-131282173D01*
X172052047Y-131282173D02*
X172052047Y-121242173D01*
%TO.C,TB6612FNGL1*%
X120726381Y-120524762D02*
X120726381Y-123284762D01*
X138616381Y-120524762D02*
X120726381Y-120524762D01*
X138616381Y-120524762D02*
X138616381Y-123284762D01*
X138616381Y-123284762D02*
X120726381Y-123284762D01*
X139886381Y-120524762D02*
X141266381Y-120524762D01*
X141266381Y-120524762D02*
X141266381Y-121904762D01*
%TO.C,QTR-8RC1*%
X115920000Y-42620000D02*
X115920000Y-45380000D01*
X141430000Y-42620000D02*
X115920000Y-42620000D01*
X141430000Y-42620000D02*
X141430000Y-45380000D01*
X141430000Y-45380000D02*
X115920000Y-45380000D01*
X142700000Y-42620000D02*
X144080000Y-42620000D01*
X144080000Y-42620000D02*
X144080000Y-44000000D01*
%TO.C,Buck_IN+1*%
X148831845Y-101382373D02*
X148831845Y-104142373D01*
X151481845Y-101382373D02*
X148831845Y-101382373D01*
X151481845Y-101382373D02*
X151481845Y-104142373D01*
X151481845Y-104142373D02*
X148831845Y-104142373D01*
X152751845Y-101382373D02*
X154131845Y-101382373D01*
X154131845Y-101382373D02*
X154131845Y-102762373D01*
%TO.C,Battery1*%
X147090000Y-86030000D02*
X154530000Y-86030000D01*
X147090000Y-96070000D02*
X147090000Y-86030000D01*
X155130000Y-86030000D02*
X157490000Y-86030000D01*
X157490000Y-86030000D02*
X157490000Y-96070000D01*
X157490000Y-86650000D02*
X147090000Y-86650000D01*
X157490000Y-88150000D02*
X147090000Y-88150000D01*
X157490000Y-93050000D02*
X147090000Y-93050000D01*
X157490000Y-96070000D02*
X147090000Y-96070000D01*
X154830000Y-86030000D02*
X154390000Y-85420000D01*
X155270000Y-85420000D01*
X154830000Y-86030000D01*
G36*
X154830000Y-86030000D02*
G01*
X154390000Y-85420000D01*
X155270000Y-85420000D01*
X154830000Y-86030000D01*
G37*
%TO.C,PicoL1*%
X120620000Y-62480293D02*
X122000000Y-62480293D01*
X120620000Y-63860293D02*
X120620000Y-62480293D01*
X120620000Y-65130293D02*
X120620000Y-113500293D01*
X120620000Y-65130293D02*
X123380000Y-65130293D01*
X120620000Y-113500293D02*
X123380000Y-113500293D01*
X123380000Y-65130293D02*
X123380000Y-113500293D01*
%TD*%
M02*
