M48
METRIC,LZ,000.000
;FILE_FORMAT=3:3
;TYPE=PLATED
;Layer: PTH_Through
;EasyEDA v6.5.40, 2024-04-07 17:54:18
;10
;Gerber Generator version 0.2
;Holesize 1 = 0.915 mm
T01C0.915
%
G05
G90
T01
X156972Y094444
X159512Y094444
X156972Y088944
X159512Y088944
X119761Y047200
X122301Y047200
X119761Y041700
X122301Y041700
X122301Y062059
X124841Y062059
X122301Y056559
X124841Y056559
X127254Y074505
X129794Y074505
X127254Y069005
X129794Y069005
X137160Y084411
X139700Y084411
X137160Y078911
X139700Y078911
X147066Y094444
X149606Y094444
X147066Y088944
X149606Y088944
X166878Y094444
X169418Y094444
X166878Y088944
X169418Y088944
X176911Y094444
X179451Y094444
X176911Y088944
X179451Y088944
X186817Y094444
X189357Y094444
X186817Y088944
X189357Y088944
X196850Y094444
X199390Y094444
X196850Y088944
X199390Y088944
X206756Y094444
X209296Y094444
X206756Y088944
X209296Y088944
X216662Y094444
X219202Y094444
X216662Y088944
X219202Y088944
X226441Y084411
X228981Y084411
X226441Y078911
X228981Y078911
X236474Y074505
X239014Y074505
X236474Y069005
X239014Y069005
X241427Y062186
X243967Y062186
X241427Y056686
X243967Y056686
X243967Y047200
X246507Y047200
X243967Y041700
X246507Y041700
X156210Y081788
X158750Y081788
X161290Y081788
X163830Y081788
X166370Y081788
X168910Y081788
X171450Y081788
X173990Y081788
X176530Y081788
X179070Y081788
X181610Y081788
X184150Y081788
X186690Y081788
X189230Y081788
X191770Y081788
X194183Y081788
X196850Y081788
X199263Y081788
X201803Y081788
X205740Y081788
X208026Y081788
X210185Y081788
M30
