M48
METRIC,LZ,000.000
;FILE_FORMAT=3:3
;TYPE=NON_PLATED
;Layer: NPTH_Through
;EasyEDA v6.5.40, 2024-04-07 17:54:18
;10
;Gerber Generator version 0.2
;Holesize 1 = 1.000 mm
T01C1.000
;Holesize 2 = 2.501 mm
T02C2.501
;Holesize 3 = 3.000 mm
T03C3.000
%
G05
G90
T01
X160692Y087044
X123481Y039800
X126021Y054659
X130974Y067105
X140880Y077011
X150786Y087044
X170598Y087044
X180631Y087044
X190537Y087044
X200570Y087044
X210476Y087044
X220382Y087044
X230161Y077011
X240194Y067105
X245147Y054786
X247687Y039800
T02
X156342Y091694
X160142Y091694
X119131Y044450
X122931Y044450
X121671Y059309
X125471Y059309
X126624Y071755
X130424Y071755
X136530Y081661
X140330Y081661
X146436Y091694
X150236Y091694
X166248Y091694
X170048Y091694
X176281Y091694
X180081Y091694
X186187Y091694
X189987Y091694
X196220Y091694
X200020Y091694
X206126Y091694
X209926Y091694
X216032Y091694
X219832Y091694
X225811Y081661
X229611Y081661
X235844Y071755
X239644Y071755
X240797Y059436
X244597Y059436
X243337Y044450
X247137Y044450
T03
X247340Y028870
X118744Y028870
X188423Y073271
X177662Y073271
X140970Y096012
X224790Y096012
M30
