G04 Layer: BottomLayer*
G04 EasyEDA v6.5.40, 2024-04-07 17:54:18*
G04 Gerber Generator version 0.2*
G04 Scale: 100 percent, Rotated: No, Reflected: No *
G04 Dimensions in millimeters *
G04 leading zeros omitted , absolute positions ,4 integer and 5 decimal *
%FSLAX45Y45*%
%MOMM*%

%ADD10C,1.5240*%

%LPD*%
D10*
G01*
X15697169Y9444388D03*
G01*
X15951169Y9444388D03*
G01*
X15697169Y8894376D03*
G01*
X15951169Y8894376D03*
G01*
X11976100Y4720005D03*
G01*
X12230100Y4720005D03*
G01*
X11976100Y4169994D03*
G01*
X12230100Y4169994D03*
G01*
X12230100Y6205905D03*
G01*
X12484100Y6205905D03*
G01*
X12230100Y5655894D03*
G01*
X12484100Y5655894D03*
G01*
X12725400Y7450505D03*
G01*
X12979400Y7450505D03*
G01*
X12725400Y6900494D03*
G01*
X12979400Y6900494D03*
G01*
X13716000Y8441105D03*
G01*
X13970000Y8441105D03*
G01*
X13716000Y7891094D03*
G01*
X13970000Y7891094D03*
G01*
X14706600Y9444405D03*
G01*
X14960600Y9444405D03*
G01*
X14706600Y8894394D03*
G01*
X14960600Y8894394D03*
G01*
X16687800Y9444405D03*
G01*
X16941800Y9444405D03*
G01*
X16687800Y8894394D03*
G01*
X16941800Y8894394D03*
G01*
X17691100Y9444405D03*
G01*
X17945100Y9444405D03*
G01*
X17691100Y8894394D03*
G01*
X17945100Y8894394D03*
G01*
X18681700Y9444405D03*
G01*
X18935700Y9444405D03*
G01*
X18681700Y8894394D03*
G01*
X18935700Y8894394D03*
G01*
X19685000Y9444405D03*
G01*
X19939000Y9444405D03*
G01*
X19685000Y8894394D03*
G01*
X19939000Y8894394D03*
G01*
X20675600Y9444405D03*
G01*
X20929600Y9444405D03*
G01*
X20675600Y8894394D03*
G01*
X20929600Y8894394D03*
G01*
X21666200Y9444405D03*
G01*
X21920200Y9444405D03*
G01*
X21666200Y8894394D03*
G01*
X21920200Y8894394D03*
G01*
X22644100Y8441105D03*
G01*
X22898100Y8441105D03*
G01*
X22644100Y7891094D03*
G01*
X22898100Y7891094D03*
G01*
X23647400Y7450505D03*
G01*
X23901400Y7450505D03*
G01*
X23647400Y6900494D03*
G01*
X23901400Y6900494D03*
G01*
X24142700Y6218605D03*
G01*
X24396700Y6218605D03*
G01*
X24142700Y5668594D03*
G01*
X24396700Y5668594D03*
G01*
X24396700Y4720005D03*
G01*
X24650700Y4720005D03*
G01*
X24396700Y4169994D03*
G01*
X24650700Y4169994D03*
G01*
X15621000Y8178800D03*
G01*
X15875000Y8178800D03*
G01*
X16129000Y8178800D03*
G01*
X16383000Y8178800D03*
G01*
X16637000Y8178800D03*
G01*
X16891000Y8178800D03*
G01*
X17145000Y8178800D03*
G01*
X17399000Y8178800D03*
G01*
X17653000Y8178800D03*
G01*
X17907000Y8178800D03*
G01*
X18161000Y8178800D03*
G01*
X18415000Y8178800D03*
G01*
X18669000Y8178800D03*
G01*
X18923000Y8178800D03*
G01*
X19177000Y8178800D03*
G01*
X19418300Y8178800D03*
G01*
X19685000Y8178800D03*
G01*
X19926300Y8178800D03*
G01*
X20180300Y8178800D03*
G01*
X20574000Y8178800D03*
G01*
X20802600Y8178800D03*
G01*
X21018500Y8178800D03*
M02*
