G04 Layer: TopPasteMaskLayer*
G04 EasyEDA v6.5.40, 2024-04-07 17:54:18*
G04 Gerber Generator version 0.2*
G04 Scale: 100 percent, Rotated: No, Reflected: No *
G04 Dimensions in millimeters *
G04 leading zeros omitted , absolute positions ,4 integer and 5 decimal *
%FSLAX45Y45*%
%MOMM*%

%ADD10C,0.0001*%

%LPD*%
G36*
X12688722Y4744008D02*
G01*
X12683693Y4738979D01*
X12683693Y4716221D01*
X12720675Y4716221D01*
X12720675Y4683201D01*
X12683693Y4683201D01*
X12683693Y4659020D01*
X12688722Y4653991D01*
X12768681Y4653991D01*
X12773710Y4659020D01*
X12773710Y4738979D01*
X12768681Y4744008D01*
G37*
G36*
X12529718Y4744008D02*
G01*
X12524689Y4738979D01*
X12524689Y4659020D01*
X12529718Y4653991D01*
X12608712Y4653991D01*
X12613690Y4659020D01*
X12613690Y4683201D01*
X12575692Y4683201D01*
X12575692Y4716221D01*
X12613690Y4716221D01*
X12613690Y4738979D01*
X12608712Y4744008D01*
G37*
G36*
X12583820Y4169206D02*
G01*
X12578791Y4164177D01*
X12578791Y4084218D01*
X12583820Y4079189D01*
X12663779Y4079189D01*
X12668808Y4084218D01*
X12668808Y4164177D01*
X12663779Y4169206D01*
X12641021Y4169206D01*
X12641021Y4132173D01*
X12608001Y4132173D01*
X12608001Y4169206D01*
G37*
G36*
X12583820Y4328210D02*
G01*
X12578791Y4323181D01*
X12578791Y4244187D01*
X12583820Y4239209D01*
X12608001Y4239209D01*
X12608001Y4277207D01*
X12641021Y4277207D01*
X12641021Y4239209D01*
X12663779Y4239209D01*
X12668808Y4244187D01*
X12668808Y4323181D01*
X12663779Y4328210D01*
G37*
G36*
X12955422Y6191808D02*
G01*
X12950393Y6186779D01*
X12950393Y6164021D01*
X12987375Y6164021D01*
X12987375Y6131001D01*
X12950393Y6131001D01*
X12950393Y6106820D01*
X12955422Y6101791D01*
X13035381Y6101791D01*
X13040410Y6106820D01*
X13040410Y6186779D01*
X13035381Y6191808D01*
G37*
G36*
X12796418Y6191808D02*
G01*
X12791389Y6186779D01*
X12791389Y6106820D01*
X12796418Y6101791D01*
X12875412Y6101791D01*
X12880390Y6106820D01*
X12880390Y6131001D01*
X12842392Y6131001D01*
X12842392Y6164021D01*
X12880390Y6164021D01*
X12880390Y6186779D01*
X12875412Y6191808D01*
G37*
G36*
X12812420Y5617006D02*
G01*
X12807391Y5611977D01*
X12807391Y5532018D01*
X12812420Y5526989D01*
X12892379Y5526989D01*
X12897408Y5532018D01*
X12897408Y5611977D01*
X12892379Y5617006D01*
X12869621Y5617006D01*
X12869621Y5579973D01*
X12836601Y5579973D01*
X12836601Y5617006D01*
G37*
G36*
X12812420Y5776010D02*
G01*
X12807391Y5770981D01*
X12807391Y5691987D01*
X12812420Y5687009D01*
X12836601Y5687009D01*
X12836601Y5725007D01*
X12869621Y5725007D01*
X12869621Y5687009D01*
X12892379Y5687009D01*
X12897408Y5691987D01*
X12897408Y5770981D01*
X12892379Y5776010D01*
G37*
G36*
X13320420Y7331506D02*
G01*
X13315391Y7326477D01*
X13315391Y7246518D01*
X13320420Y7241489D01*
X13400379Y7241489D01*
X13405408Y7246518D01*
X13405408Y7326477D01*
X13400379Y7331506D01*
X13377621Y7331506D01*
X13377621Y7294473D01*
X13344601Y7294473D01*
X13344601Y7331506D01*
G37*
G36*
X13320420Y7490510D02*
G01*
X13315391Y7485481D01*
X13315391Y7406487D01*
X13320420Y7401509D01*
X13344601Y7401509D01*
X13344601Y7439507D01*
X13377621Y7439507D01*
X13377621Y7401509D01*
X13400379Y7401509D01*
X13405408Y7406487D01*
X13405408Y7485481D01*
X13400379Y7490510D01*
G37*
G36*
X13320420Y6912406D02*
G01*
X13315391Y6907377D01*
X13315391Y6827418D01*
X13320420Y6822389D01*
X13400379Y6822389D01*
X13405408Y6827418D01*
X13405408Y6907377D01*
X13400379Y6912406D01*
X13377621Y6912406D01*
X13377621Y6875373D01*
X13344601Y6875373D01*
X13344601Y6912406D01*
G37*
G36*
X13320420Y7071410D02*
G01*
X13315391Y7066381D01*
X13315391Y6987387D01*
X13320420Y6982409D01*
X13344601Y6982409D01*
X13344601Y7020407D01*
X13377621Y7020407D01*
X13377621Y6982409D01*
X13400379Y6982409D01*
X13405408Y6987387D01*
X13405408Y7066381D01*
X13400379Y7071410D01*
G37*
G36*
X14285620Y8385606D02*
G01*
X14280591Y8380577D01*
X14280591Y8300618D01*
X14285620Y8295589D01*
X14365579Y8295589D01*
X14370608Y8300618D01*
X14370608Y8380577D01*
X14365579Y8385606D01*
X14342821Y8385606D01*
X14342821Y8348573D01*
X14309801Y8348573D01*
X14309801Y8385606D01*
G37*
G36*
X14285620Y8544610D02*
G01*
X14280591Y8539581D01*
X14280591Y8460587D01*
X14285620Y8455609D01*
X14309801Y8455609D01*
X14309801Y8493607D01*
X14342821Y8493607D01*
X14342821Y8455609D01*
X14365579Y8455609D01*
X14370608Y8460587D01*
X14370608Y8539581D01*
X14365579Y8544610D01*
G37*
G36*
X14298320Y7890306D02*
G01*
X14293291Y7885277D01*
X14293291Y7805318D01*
X14298320Y7800289D01*
X14378279Y7800289D01*
X14383308Y7805318D01*
X14383308Y7885277D01*
X14378279Y7890306D01*
X14355521Y7890306D01*
X14355521Y7853273D01*
X14322501Y7853273D01*
X14322501Y7890306D01*
G37*
G36*
X14298320Y8049310D02*
G01*
X14293291Y8044281D01*
X14293291Y7965287D01*
X14298320Y7960309D01*
X14322501Y7960309D01*
X14322501Y7998307D01*
X14355521Y7998307D01*
X14355521Y7960309D01*
X14378279Y7960309D01*
X14383308Y7965287D01*
X14383308Y8044281D01*
X14378279Y8049310D01*
G37*
G36*
X15288920Y9376206D02*
G01*
X15283891Y9371177D01*
X15283891Y9291218D01*
X15288920Y9286189D01*
X15368879Y9286189D01*
X15373908Y9291218D01*
X15373908Y9371177D01*
X15368879Y9376206D01*
X15346121Y9376206D01*
X15346121Y9339173D01*
X15313101Y9339173D01*
X15313101Y9376206D01*
G37*
G36*
X15288920Y9535210D02*
G01*
X15283891Y9530181D01*
X15283891Y9451187D01*
X15288920Y9446209D01*
X15313101Y9446209D01*
X15313101Y9484207D01*
X15346121Y9484207D01*
X15346121Y9446209D01*
X15368879Y9446209D01*
X15373908Y9451187D01*
X15373908Y9530181D01*
X15368879Y9535210D01*
G37*
G36*
X15276220Y8855506D02*
G01*
X15271191Y8850477D01*
X15271191Y8770518D01*
X15276220Y8765489D01*
X15356179Y8765489D01*
X15361208Y8770518D01*
X15361208Y8850477D01*
X15356179Y8855506D01*
X15333421Y8855506D01*
X15333421Y8818473D01*
X15300401Y8818473D01*
X15300401Y8855506D01*
G37*
G36*
X15276220Y9014510D02*
G01*
X15271191Y9009481D01*
X15271191Y8930487D01*
X15276220Y8925509D01*
X15300401Y8925509D01*
X15300401Y8963507D01*
X15333421Y8963507D01*
X15333421Y8925509D01*
X15356179Y8925509D01*
X15361208Y8930487D01*
X15361208Y9009481D01*
X15356179Y9014510D01*
G37*
G36*
X16266820Y9376206D02*
G01*
X16261791Y9371177D01*
X16261791Y9291218D01*
X16266820Y9286189D01*
X16346779Y9286189D01*
X16351808Y9291218D01*
X16351808Y9371177D01*
X16346779Y9376206D01*
X16324021Y9376206D01*
X16324021Y9339173D01*
X16291001Y9339173D01*
X16291001Y9376206D01*
G37*
G36*
X16266820Y9535210D02*
G01*
X16261791Y9530181D01*
X16261791Y9451187D01*
X16266820Y9446209D01*
X16291001Y9446209D01*
X16291001Y9484207D01*
X16324021Y9484207D01*
X16324021Y9446209D01*
X16346779Y9446209D01*
X16351808Y9451187D01*
X16351808Y9530181D01*
X16346779Y9535210D01*
G37*
G36*
X16266820Y8855506D02*
G01*
X16261791Y8850477D01*
X16261791Y8770518D01*
X16266820Y8765489D01*
X16346779Y8765489D01*
X16351808Y8770518D01*
X16351808Y8850477D01*
X16346779Y8855506D01*
X16324021Y8855506D01*
X16324021Y8818473D01*
X16291001Y8818473D01*
X16291001Y8855506D01*
G37*
G36*
X16266820Y9014510D02*
G01*
X16261791Y9009481D01*
X16261791Y8930487D01*
X16266820Y8925509D01*
X16291001Y8925509D01*
X16291001Y8963507D01*
X16324021Y8963507D01*
X16324021Y8925509D01*
X16346779Y8925509D01*
X16351808Y8930487D01*
X16351808Y9009481D01*
X16346779Y9014510D01*
G37*
G36*
X17270120Y9363506D02*
G01*
X17265091Y9358477D01*
X17265091Y9278518D01*
X17270120Y9273489D01*
X17350079Y9273489D01*
X17355108Y9278518D01*
X17355108Y9358477D01*
X17350079Y9363506D01*
X17327321Y9363506D01*
X17327321Y9326473D01*
X17294301Y9326473D01*
X17294301Y9363506D01*
G37*
G36*
X17270120Y9522510D02*
G01*
X17265091Y9517481D01*
X17265091Y9438487D01*
X17270120Y9433509D01*
X17294301Y9433509D01*
X17294301Y9471507D01*
X17327321Y9471507D01*
X17327321Y9433509D01*
X17350079Y9433509D01*
X17355108Y9438487D01*
X17355108Y9517481D01*
X17350079Y9522510D01*
G37*
G36*
X17270120Y8855506D02*
G01*
X17265091Y8850477D01*
X17265091Y8770518D01*
X17270120Y8765489D01*
X17350079Y8765489D01*
X17355108Y8770518D01*
X17355108Y8850477D01*
X17350079Y8855506D01*
X17327321Y8855506D01*
X17327321Y8818473D01*
X17294301Y8818473D01*
X17294301Y8855506D01*
G37*
G36*
X17270120Y9014510D02*
G01*
X17265091Y9009481D01*
X17265091Y8930487D01*
X17270120Y8925509D01*
X17294301Y8925509D01*
X17294301Y8963507D01*
X17327321Y8963507D01*
X17327321Y8925509D01*
X17350079Y8925509D01*
X17355108Y8930487D01*
X17355108Y9009481D01*
X17350079Y9014510D01*
G37*
G36*
X18248020Y9376206D02*
G01*
X18242991Y9371177D01*
X18242991Y9291218D01*
X18248020Y9286189D01*
X18327979Y9286189D01*
X18333008Y9291218D01*
X18333008Y9371177D01*
X18327979Y9376206D01*
X18305221Y9376206D01*
X18305221Y9339173D01*
X18272201Y9339173D01*
X18272201Y9376206D01*
G37*
G36*
X18248020Y9535210D02*
G01*
X18242991Y9530181D01*
X18242991Y9451187D01*
X18248020Y9446209D01*
X18272201Y9446209D01*
X18272201Y9484207D01*
X18305221Y9484207D01*
X18305221Y9446209D01*
X18327979Y9446209D01*
X18333008Y9451187D01*
X18333008Y9530181D01*
X18327979Y9535210D01*
G37*
G36*
X18260720Y8855506D02*
G01*
X18255691Y8850477D01*
X18255691Y8770518D01*
X18260720Y8765489D01*
X18340679Y8765489D01*
X18345708Y8770518D01*
X18345708Y8850477D01*
X18340679Y8855506D01*
X18317921Y8855506D01*
X18317921Y8818473D01*
X18284901Y8818473D01*
X18284901Y8855506D01*
G37*
G36*
X18260720Y9014510D02*
G01*
X18255691Y9009481D01*
X18255691Y8930487D01*
X18260720Y8925509D01*
X18284901Y8925509D01*
X18284901Y8963507D01*
X18317921Y8963507D01*
X18317921Y8925509D01*
X18340679Y8925509D01*
X18345708Y8930487D01*
X18345708Y9009481D01*
X18340679Y9014510D01*
G37*
G36*
X19264020Y9350806D02*
G01*
X19258991Y9345777D01*
X19258991Y9265818D01*
X19264020Y9260789D01*
X19343979Y9260789D01*
X19349008Y9265818D01*
X19349008Y9345777D01*
X19343979Y9350806D01*
X19321221Y9350806D01*
X19321221Y9313773D01*
X19288201Y9313773D01*
X19288201Y9350806D01*
G37*
G36*
X19264020Y9509810D02*
G01*
X19258991Y9504781D01*
X19258991Y9425787D01*
X19264020Y9420809D01*
X19288201Y9420809D01*
X19288201Y9458807D01*
X19321221Y9458807D01*
X19321221Y9420809D01*
X19343979Y9420809D01*
X19349008Y9425787D01*
X19349008Y9504781D01*
X19343979Y9509810D01*
G37*
G36*
X19264020Y8893606D02*
G01*
X19258991Y8888577D01*
X19258991Y8808618D01*
X19264020Y8803589D01*
X19343979Y8803589D01*
X19349008Y8808618D01*
X19349008Y8888577D01*
X19343979Y8893606D01*
X19321221Y8893606D01*
X19321221Y8856573D01*
X19288201Y8856573D01*
X19288201Y8893606D01*
G37*
G36*
X19264020Y9052610D02*
G01*
X19258991Y9047581D01*
X19258991Y8968587D01*
X19264020Y8963609D01*
X19288201Y8963609D01*
X19288201Y9001607D01*
X19321221Y9001607D01*
X19321221Y8963609D01*
X19343979Y8963609D01*
X19349008Y8968587D01*
X19349008Y9047581D01*
X19343979Y9052610D01*
G37*
G36*
X20267320Y9350806D02*
G01*
X20262291Y9345777D01*
X20262291Y9265818D01*
X20267320Y9260789D01*
X20347279Y9260789D01*
X20352308Y9265818D01*
X20352308Y9345777D01*
X20347279Y9350806D01*
X20324521Y9350806D01*
X20324521Y9313773D01*
X20291501Y9313773D01*
X20291501Y9350806D01*
G37*
G36*
X20267320Y9509810D02*
G01*
X20262291Y9504781D01*
X20262291Y9425787D01*
X20267320Y9420809D01*
X20291501Y9420809D01*
X20291501Y9458807D01*
X20324521Y9458807D01*
X20324521Y9420809D01*
X20347279Y9420809D01*
X20352308Y9425787D01*
X20352308Y9504781D01*
X20347279Y9509810D01*
G37*
G36*
X20175118Y8935008D02*
G01*
X20170089Y8929979D01*
X20170089Y8850020D01*
X20175118Y8844991D01*
X20255077Y8844991D01*
X20260106Y8850020D01*
X20260106Y8872778D01*
X20223124Y8872778D01*
X20223124Y8905798D01*
X20260106Y8905798D01*
X20260106Y8929979D01*
X20255077Y8935008D01*
G37*
G36*
X20335087Y8935008D02*
G01*
X20330109Y8929979D01*
X20330109Y8905798D01*
X20368107Y8905798D01*
X20368107Y8872778D01*
X20330109Y8872778D01*
X20330109Y8850020D01*
X20335087Y8844991D01*
X20414081Y8844991D01*
X20419110Y8850020D01*
X20419110Y8929979D01*
X20414081Y8935008D01*
G37*
G36*
X21270620Y8919006D02*
G01*
X21265591Y8913977D01*
X21265591Y8834018D01*
X21270620Y8828989D01*
X21350579Y8828989D01*
X21355608Y8834018D01*
X21355608Y8913977D01*
X21350579Y8919006D01*
X21327821Y8919006D01*
X21327821Y8881973D01*
X21294801Y8881973D01*
X21294801Y8919006D01*
G37*
G36*
X21270620Y9078010D02*
G01*
X21265591Y9072981D01*
X21265591Y8993987D01*
X21270620Y8989009D01*
X21294801Y8989009D01*
X21294801Y9027007D01*
X21327821Y9027007D01*
X21327821Y8989009D01*
X21350579Y8989009D01*
X21355608Y8993987D01*
X21355608Y9072981D01*
X21350579Y9078010D01*
G37*
G36*
X21270620Y9350806D02*
G01*
X21265591Y9345777D01*
X21265591Y9265818D01*
X21270620Y9260789D01*
X21350579Y9260789D01*
X21355608Y9265818D01*
X21355608Y9345777D01*
X21350579Y9350806D01*
X21327821Y9350806D01*
X21327821Y9313773D01*
X21294801Y9313773D01*
X21294801Y9350806D01*
G37*
G36*
X21270620Y9509810D02*
G01*
X21265591Y9504781D01*
X21265591Y9425787D01*
X21270620Y9420809D01*
X21294801Y9420809D01*
X21294801Y9458807D01*
X21327821Y9458807D01*
X21327821Y9420809D01*
X21350579Y9420809D01*
X21355608Y9425787D01*
X21355608Y9504781D01*
X21350579Y9509810D01*
G37*
G36*
X22169018Y8947708D02*
G01*
X22163989Y8942679D01*
X22163989Y8862720D01*
X22169018Y8857691D01*
X22248977Y8857691D01*
X22254006Y8862720D01*
X22254006Y8885478D01*
X22217024Y8885478D01*
X22217024Y8918498D01*
X22254006Y8918498D01*
X22254006Y8942679D01*
X22248977Y8947708D01*
G37*
G36*
X22328987Y8947708D02*
G01*
X22324009Y8942679D01*
X22324009Y8918498D01*
X22362007Y8918498D01*
X22362007Y8885478D01*
X22324009Y8885478D01*
X22324009Y8862720D01*
X22328987Y8857691D01*
X22407981Y8857691D01*
X22413010Y8862720D01*
X22413010Y8942679D01*
X22407981Y8947708D01*
G37*
G36*
X22185020Y9363506D02*
G01*
X22179991Y9358477D01*
X22179991Y9278518D01*
X22185020Y9273489D01*
X22264979Y9273489D01*
X22270008Y9278518D01*
X22270008Y9358477D01*
X22264979Y9363506D01*
X22242221Y9363506D01*
X22242221Y9326473D01*
X22209201Y9326473D01*
X22209201Y9363506D01*
G37*
G36*
X22185020Y9522510D02*
G01*
X22179991Y9517481D01*
X22179991Y9438487D01*
X22185020Y9433509D01*
X22209201Y9433509D01*
X22209201Y9471507D01*
X22242221Y9471507D01*
X22242221Y9433509D01*
X22264979Y9433509D01*
X22270008Y9438487D01*
X22270008Y9517481D01*
X22264979Y9522510D01*
G37*
G36*
X23226420Y7928406D02*
G01*
X23221391Y7923377D01*
X23221391Y7843418D01*
X23226420Y7838389D01*
X23306379Y7838389D01*
X23311408Y7843418D01*
X23311408Y7923377D01*
X23306379Y7928406D01*
X23283621Y7928406D01*
X23283621Y7891373D01*
X23250601Y7891373D01*
X23250601Y7928406D01*
G37*
G36*
X23226420Y8087410D02*
G01*
X23221391Y8082381D01*
X23221391Y8003387D01*
X23226420Y7998409D01*
X23250601Y7998409D01*
X23250601Y8036407D01*
X23283621Y8036407D01*
X23283621Y7998409D01*
X23306379Y7998409D01*
X23311408Y8003387D01*
X23311408Y8082381D01*
X23306379Y8087410D01*
G37*
G36*
X23318622Y8465108D02*
G01*
X23313593Y8460079D01*
X23313593Y8437321D01*
X23350575Y8437321D01*
X23350575Y8404301D01*
X23313593Y8404301D01*
X23313593Y8380120D01*
X23318622Y8375091D01*
X23398581Y8375091D01*
X23403610Y8380120D01*
X23403610Y8460079D01*
X23398581Y8465108D01*
G37*
G36*
X23159618Y8465108D02*
G01*
X23154589Y8460079D01*
X23154589Y8380120D01*
X23159618Y8375091D01*
X23238612Y8375091D01*
X23243590Y8380120D01*
X23243590Y8404301D01*
X23205592Y8404301D01*
X23205592Y8437321D01*
X23243590Y8437321D01*
X23243590Y8460079D01*
X23238612Y8465108D01*
G37*
G36*
X24229720Y6836206D02*
G01*
X24224691Y6831177D01*
X24224691Y6751218D01*
X24229720Y6746189D01*
X24309679Y6746189D01*
X24314708Y6751218D01*
X24314708Y6831177D01*
X24309679Y6836206D01*
X24286921Y6836206D01*
X24286921Y6799173D01*
X24253901Y6799173D01*
X24253901Y6836206D01*
G37*
G36*
X24229720Y6995210D02*
G01*
X24224691Y6990181D01*
X24224691Y6911187D01*
X24229720Y6906209D01*
X24253901Y6906209D01*
X24253901Y6944207D01*
X24286921Y6944207D01*
X24286921Y6906209D01*
X24309679Y6906209D01*
X24314708Y6911187D01*
X24314708Y6990181D01*
X24309679Y6995210D01*
G37*
G36*
X24334622Y7245908D02*
G01*
X24329593Y7240879D01*
X24329593Y7218121D01*
X24366575Y7218121D01*
X24366575Y7185101D01*
X24329593Y7185101D01*
X24329593Y7160920D01*
X24334622Y7155891D01*
X24414581Y7155891D01*
X24419610Y7160920D01*
X24419610Y7240879D01*
X24414581Y7245908D01*
G37*
G36*
X24175618Y7245908D02*
G01*
X24170589Y7240879D01*
X24170589Y7160920D01*
X24175618Y7155891D01*
X24254612Y7155891D01*
X24259590Y7160920D01*
X24259590Y7185101D01*
X24221592Y7185101D01*
X24221592Y7218121D01*
X24259590Y7218121D01*
X24259590Y7240879D01*
X24254612Y7245908D01*
G37*
G36*
X24750420Y5642406D02*
G01*
X24745391Y5637377D01*
X24745391Y5557418D01*
X24750420Y5552389D01*
X24830379Y5552389D01*
X24835408Y5557418D01*
X24835408Y5637377D01*
X24830379Y5642406D01*
X24807621Y5642406D01*
X24807621Y5605373D01*
X24774601Y5605373D01*
X24774601Y5642406D01*
G37*
G36*
X24750420Y5801410D02*
G01*
X24745391Y5796381D01*
X24745391Y5717387D01*
X24750420Y5712409D01*
X24774601Y5712409D01*
X24774601Y5750407D01*
X24807621Y5750407D01*
X24807621Y5712409D01*
X24830379Y5712409D01*
X24835408Y5717387D01*
X24835408Y5796381D01*
X24830379Y5801410D01*
G37*
G36*
X24855322Y6217208D02*
G01*
X24850293Y6212179D01*
X24850293Y6189421D01*
X24887275Y6189421D01*
X24887275Y6156401D01*
X24850293Y6156401D01*
X24850293Y6132220D01*
X24855322Y6127191D01*
X24935281Y6127191D01*
X24940310Y6132220D01*
X24940310Y6212179D01*
X24935281Y6217208D01*
G37*
G36*
X24696318Y6217208D02*
G01*
X24691289Y6212179D01*
X24691289Y6132220D01*
X24696318Y6127191D01*
X24775312Y6127191D01*
X24780290Y6132220D01*
X24780290Y6156401D01*
X24742292Y6156401D01*
X24742292Y6189421D01*
X24780290Y6189421D01*
X24780290Y6212179D01*
X24775312Y6217208D01*
G37*
G36*
X25045822Y4756708D02*
G01*
X25040793Y4751679D01*
X25040793Y4728921D01*
X25077775Y4728921D01*
X25077775Y4695901D01*
X25040793Y4695901D01*
X25040793Y4671720D01*
X25045822Y4666691D01*
X25125781Y4666691D01*
X25130810Y4671720D01*
X25130810Y4751679D01*
X25125781Y4756708D01*
G37*
G36*
X24886818Y4756708D02*
G01*
X24881789Y4751679D01*
X24881789Y4671720D01*
X24886818Y4666691D01*
X24965812Y4666691D01*
X24970790Y4671720D01*
X24970790Y4695901D01*
X24932792Y4695901D01*
X24932792Y4728921D01*
X24970790Y4728921D01*
X24970790Y4751679D01*
X24965812Y4756708D01*
G37*
G36*
X24953620Y4118406D02*
G01*
X24948591Y4113377D01*
X24948591Y4033418D01*
X24953620Y4028389D01*
X25033579Y4028389D01*
X25038608Y4033418D01*
X25038608Y4113377D01*
X25033579Y4118406D01*
X25010821Y4118406D01*
X25010821Y4081373D01*
X24977801Y4081373D01*
X24977801Y4118406D01*
G37*
G36*
X24953620Y4277410D02*
G01*
X24948591Y4272381D01*
X24948591Y4193387D01*
X24953620Y4188409D01*
X24977801Y4188409D01*
X24977801Y4226407D01*
X25010821Y4226407D01*
X25010821Y4188409D01*
X25033579Y4188409D01*
X25038608Y4193387D01*
X25038608Y4272381D01*
X25033579Y4277410D01*
G37*
M02*
