G04 Layer: BottomSilkscreenLayer*
G04 EasyEDA v6.5.40, 2024-04-07 17:54:18*
G04 Gerber Generator version 0.2*
G04 Scale: 100 percent, Rotated: No, Reflected: No *
G04 Dimensions in millimeters *
G04 leading zeros omitted , absolute positions ,4 integer and 5 decimal *
%FSLAX45Y45*%
%MOMM*%

%ADD10C,0.2032*%
%ADD11C,0.2540*%

%LPD*%
D10*
X15633700Y7981187D02*
G01*
X15623286Y7986521D01*
X15607791Y8002015D01*
X15607791Y7893050D01*
X15908020Y7976108D02*
G01*
X15908020Y7981187D01*
X15902686Y7991602D01*
X15897606Y7996936D01*
X15887191Y8002015D01*
X15866363Y8002015D01*
X15855950Y7996936D01*
X15850870Y7991602D01*
X15845536Y7981187D01*
X15845536Y7970773D01*
X15850870Y7960360D01*
X15861029Y7944865D01*
X15913100Y7893050D01*
X15840456Y7893050D01*
X16156686Y7989315D02*
G01*
X16099536Y7989315D01*
X16130777Y7947660D01*
X16115029Y7947660D01*
X16104870Y7942579D01*
X16099536Y7937500D01*
X16094456Y7921752D01*
X16094456Y7911337D01*
X16099536Y7895844D01*
X16109950Y7885429D01*
X16125443Y7880350D01*
X16141191Y7880350D01*
X16156686Y7885429D01*
X16162020Y7890510D01*
X16167100Y7900923D01*
X16369029Y7989315D02*
G01*
X16421100Y7916671D01*
X16343122Y7916671D01*
X16369029Y7989315D02*
G01*
X16369029Y7880350D01*
X16612870Y7989315D02*
G01*
X16664686Y7989315D01*
X16670020Y7942579D01*
X16664686Y7947660D01*
X16649191Y7952994D01*
X16633443Y7952994D01*
X16617950Y7947660D01*
X16607536Y7937500D01*
X16602456Y7921752D01*
X16602456Y7911337D01*
X16607536Y7895844D01*
X16617950Y7885429D01*
X16633443Y7880350D01*
X16649191Y7880350D01*
X16664686Y7885429D01*
X16670020Y7890510D01*
X16675100Y7900923D01*
X16866870Y7973821D02*
G01*
X16871950Y7984236D01*
X16887443Y7989315D01*
X16897858Y7989315D01*
X16913606Y7984236D01*
X16924020Y7968487D01*
X16929100Y7942579D01*
X16929100Y7916671D01*
X16924020Y7895844D01*
X16913606Y7885429D01*
X16897858Y7880350D01*
X16892777Y7880350D01*
X16877029Y7885429D01*
X16866870Y7895844D01*
X16861536Y7911337D01*
X16861536Y7916671D01*
X16866870Y7932165D01*
X16877029Y7942579D01*
X16892777Y7947660D01*
X16897858Y7947660D01*
X16913606Y7942579D01*
X16924020Y7932165D01*
X16929100Y7916671D01*
X17110456Y7989315D02*
G01*
X17162272Y7880350D01*
X17183100Y7989315D02*
G01*
X17110456Y7989315D01*
X17411191Y7989315D02*
G01*
X17426686Y7984236D01*
X17432020Y7973821D01*
X17432020Y7963408D01*
X17426686Y7952994D01*
X17416272Y7947660D01*
X17395443Y7942579D01*
X17379950Y7937500D01*
X17369536Y7927086D01*
X17364456Y7916671D01*
X17364456Y7900923D01*
X17369536Y7890510D01*
X17374870Y7885429D01*
X17390363Y7880350D01*
X17411191Y7880350D01*
X17426686Y7885429D01*
X17432020Y7890510D01*
X17437100Y7900923D01*
X17437100Y7916671D01*
X17432020Y7927086D01*
X17421606Y7937500D01*
X17405858Y7942579D01*
X17385029Y7947660D01*
X17374870Y7952994D01*
X17369536Y7963408D01*
X17369536Y7973821D01*
X17374870Y7984236D01*
X17390363Y7989315D01*
X17411191Y7989315D01*
X17623536Y7952994D02*
G01*
X17628870Y7937500D01*
X17639029Y7927086D01*
X17654777Y7921752D01*
X17659858Y7921752D01*
X17675606Y7927086D01*
X17686020Y7937500D01*
X17691100Y7952994D01*
X17691100Y7958073D01*
X17686020Y7973821D01*
X17675606Y7984236D01*
X17659858Y7989315D01*
X17654777Y7989315D01*
X17639029Y7984236D01*
X17628870Y7973821D01*
X17623536Y7952994D01*
X17623536Y7927086D01*
X17628870Y7900923D01*
X17639029Y7885429D01*
X17654777Y7880350D01*
X17665191Y7880350D01*
X17680686Y7885429D01*
X17686020Y7895844D01*
X17983200Y7968487D02*
G01*
X17972786Y7973821D01*
X17957291Y7989315D01*
X17957291Y7880350D01*
X17891759Y7989315D02*
G01*
X17907254Y7984236D01*
X17917668Y7968487D01*
X17923002Y7942579D01*
X17923002Y7927086D01*
X17917668Y7900923D01*
X17907254Y7885429D01*
X17891759Y7880350D01*
X17881345Y7880350D01*
X17865852Y7885429D01*
X17855438Y7900923D01*
X17850104Y7927086D01*
X17850104Y7942579D01*
X17855438Y7968487D01*
X17865852Y7984236D01*
X17881345Y7989315D01*
X17891759Y7989315D01*
X18224500Y7968487D02*
G01*
X18214086Y7973821D01*
X18198591Y7989315D01*
X18198591Y7880350D01*
X18164302Y7968487D02*
G01*
X18153888Y7973821D01*
X18138140Y7989315D01*
X18138140Y7880350D01*
X18491200Y7968487D02*
G01*
X18480786Y7973821D01*
X18465291Y7989315D01*
X18465291Y7880350D01*
X18425668Y7963408D02*
G01*
X18425668Y7968487D01*
X18420588Y7978902D01*
X18415254Y7984236D01*
X18404840Y7989315D01*
X18384266Y7989315D01*
X18373852Y7984236D01*
X18368518Y7978902D01*
X18363438Y7968487D01*
X18363438Y7958073D01*
X18368518Y7947660D01*
X18378931Y7932165D01*
X18431002Y7880350D01*
X18358104Y7880350D01*
X18757900Y7968487D02*
G01*
X18747486Y7973821D01*
X18731991Y7989315D01*
X18731991Y7880350D01*
X18687288Y7989315D02*
G01*
X18630138Y7989315D01*
X18661379Y7947660D01*
X18645631Y7947660D01*
X18635218Y7942579D01*
X18630138Y7937500D01*
X18624804Y7921752D01*
X18624804Y7911337D01*
X18630138Y7895844D01*
X18640552Y7885429D01*
X18656045Y7880350D01*
X18671540Y7880350D01*
X18687288Y7885429D01*
X18692368Y7890510D01*
X18697702Y7900923D01*
X19011900Y7968487D02*
G01*
X19001486Y7973821D01*
X18985991Y7989315D01*
X18985991Y7880350D01*
X18899631Y7989315D02*
G01*
X18951702Y7916671D01*
X18873724Y7916671D01*
X18899631Y7989315D02*
G01*
X18899631Y7880350D01*
X19253200Y7968487D02*
G01*
X19242786Y7973821D01*
X19227291Y7989315D01*
X19227291Y7880350D01*
X19130518Y7989315D02*
G01*
X19182588Y7989315D01*
X19187668Y7942579D01*
X19182588Y7947660D01*
X19166840Y7952994D01*
X19151345Y7952994D01*
X19135852Y7947660D01*
X19125438Y7937500D01*
X19120104Y7921752D01*
X19120104Y7911337D01*
X19125438Y7895844D01*
X19135852Y7885429D01*
X19151345Y7880350D01*
X19166840Y7880350D01*
X19182588Y7885429D01*
X19187668Y7890510D01*
X19193002Y7900923D01*
X19494500Y7968487D02*
G01*
X19484086Y7973821D01*
X19468591Y7989315D01*
X19468591Y7880350D01*
X19371818Y7973821D02*
G01*
X19377152Y7984236D01*
X19392645Y7989315D01*
X19403059Y7989315D01*
X19418554Y7984236D01*
X19428968Y7968487D01*
X19434302Y7942579D01*
X19434302Y7916671D01*
X19428968Y7895844D01*
X19418554Y7885429D01*
X19403059Y7880350D01*
X19397979Y7880350D01*
X19382231Y7885429D01*
X19371818Y7895844D01*
X19366738Y7911337D01*
X19366738Y7916671D01*
X19371818Y7932165D01*
X19382231Y7942579D01*
X19397979Y7947660D01*
X19403059Y7947660D01*
X19418554Y7942579D01*
X19428968Y7932165D01*
X19434302Y7916671D01*
X19761200Y7977517D02*
G01*
X19761200Y7891609D01*
X19761200Y7977517D02*
G01*
X19732564Y7977517D01*
X19720290Y7973428D01*
X19712109Y7965244D01*
X19708017Y7957063D01*
X19703928Y7944789D01*
X19703928Y7924335D01*
X19708017Y7912064D01*
X19712109Y7903880D01*
X19720290Y7895699D01*
X19732564Y7891609D01*
X19761200Y7891609D01*
X19676927Y7977517D02*
G01*
X19672835Y7973428D01*
X19668746Y7977517D01*
X19672835Y7981609D01*
X19676927Y7977517D01*
X19672835Y7948881D02*
G01*
X19672835Y7891609D01*
X19641746Y7948881D02*
G01*
X19641746Y7891609D01*
X19641746Y7932519D02*
G01*
X19629473Y7944789D01*
X19621291Y7948881D01*
X19609018Y7948881D01*
X19600837Y7944789D01*
X19596745Y7932519D01*
X19596745Y7891609D01*
X19991936Y7957063D02*
G01*
X19996028Y7965244D01*
X20004209Y7973428D01*
X20012390Y7977517D01*
X20028753Y7977517D01*
X20036937Y7973428D01*
X20045118Y7965244D01*
X20049208Y7957063D01*
X20053300Y7944789D01*
X20053300Y7924335D01*
X20049208Y7912064D01*
X20045118Y7903880D01*
X20036937Y7895699D01*
X20028753Y7891609D01*
X20012390Y7891609D01*
X20004209Y7895699D01*
X19996028Y7903880D01*
X19991936Y7912064D01*
X19991936Y7924335D01*
X20012390Y7924335D02*
G01*
X19991936Y7924335D01*
X19964935Y7977517D02*
G01*
X19964935Y7891609D01*
X19964935Y7977517D02*
G01*
X19907664Y7891609D01*
X19907664Y7977517D02*
G01*
X19907664Y7891609D01*
X19880663Y7977517D02*
G01*
X19880663Y7891609D01*
X19880663Y7977517D02*
G01*
X19852027Y7977517D01*
X19839754Y7973428D01*
X19831573Y7965244D01*
X19827481Y7957063D01*
X19823391Y7944789D01*
X19823391Y7924335D01*
X19827481Y7912064D01*
X19831573Y7903880D01*
X19839754Y7895699D01*
X19852027Y7891609D01*
X19880663Y7891609D01*
X20370800Y7977517D02*
G01*
X20338072Y7891609D01*
X20305346Y7977517D02*
G01*
X20338072Y7891609D01*
X20229255Y7936608D02*
G01*
X20237437Y7944789D01*
X20245618Y7948881D01*
X20257891Y7948881D01*
X20266073Y7944789D01*
X20274254Y7936608D01*
X20278346Y7924335D01*
X20278346Y7916153D01*
X20274254Y7903880D01*
X20266073Y7895699D01*
X20257891Y7891609D01*
X20245618Y7891609D01*
X20237437Y7895699D01*
X20229255Y7903880D01*
X20153165Y7936608D02*
G01*
X20161346Y7944789D01*
X20169527Y7948881D01*
X20181801Y7948881D01*
X20189982Y7944789D01*
X20198163Y7936608D01*
X20202255Y7924335D01*
X20202255Y7916153D01*
X20198163Y7903880D01*
X20189982Y7895699D01*
X20181801Y7891609D01*
X20169527Y7891609D01*
X20161346Y7895699D01*
X20153165Y7903880D01*
X20608290Y8000237D02*
G01*
X20653756Y8000237D01*
X20658327Y7959344D01*
X20653756Y7963915D01*
X20640293Y7968487D01*
X20626577Y7968487D01*
X20612861Y7963915D01*
X20603718Y7954771D01*
X20599145Y7941310D01*
X20599145Y7932165D01*
X20603718Y7918450D01*
X20612861Y7909305D01*
X20626577Y7904734D01*
X20640293Y7904734D01*
X20653756Y7909305D01*
X20658327Y7913878D01*
X20662900Y7923021D01*
X20569174Y7968487D02*
G01*
X20541995Y7904734D01*
X20514818Y7968487D02*
G01*
X20541995Y7904734D01*
X21111972Y7990331D02*
G01*
X21067013Y7990331D01*
X21091398Y7957565D01*
X21079206Y7957565D01*
X21071077Y7953502D01*
X21067013Y7949184D01*
X21062950Y7936992D01*
X21062950Y7928863D01*
X21067013Y7916671D01*
X21075141Y7908289D01*
X21087334Y7904226D01*
X21099525Y7904226D01*
X21111972Y7908289D01*
X21116036Y7912608D01*
X21120100Y7920736D01*
X21031708Y7924800D02*
G01*
X21035772Y7920736D01*
X21031708Y7916671D01*
X21027643Y7920736D01*
X21031708Y7924800D01*
X20992338Y7990331D02*
G01*
X20947379Y7990331D01*
X20972018Y7957565D01*
X20959825Y7957565D01*
X20951443Y7953502D01*
X20947379Y7949184D01*
X20943316Y7936992D01*
X20943316Y7928863D01*
X20947379Y7916671D01*
X20955761Y7908289D01*
X20967954Y7904226D01*
X20980145Y7904226D01*
X20992338Y7908289D01*
X20996656Y7912608D01*
X21000720Y7920736D01*
X20916391Y7961629D02*
G01*
X20891754Y7904226D01*
X20867370Y7961629D02*
G01*
X20891754Y7904226D01*
X17462500Y7584000D02*
G01*
X17452500Y7588999D01*
X17437498Y7604000D01*
X17437498Y7498999D01*
X17344499Y7588999D02*
G01*
X17349500Y7598999D01*
X17364499Y7604000D01*
X17374499Y7604000D01*
X17389500Y7598999D01*
X17399500Y7584000D01*
X17404499Y7558999D01*
X17404499Y7534000D01*
X17399500Y7514000D01*
X17389500Y7504000D01*
X17374499Y7498999D01*
X17369500Y7498999D01*
X17354499Y7504000D01*
X17344499Y7514000D01*
X17339500Y7528999D01*
X17339500Y7534000D01*
X17344499Y7548999D01*
X17354499Y7558999D01*
X17369500Y7564000D01*
X17374499Y7564000D01*
X17389500Y7558999D01*
X17399500Y7548999D01*
X17404499Y7534000D01*
X17229500Y7604000D02*
G01*
X17229500Y7498999D01*
X17196501Y7604000D02*
G01*
X17196501Y7498999D01*
X17196501Y7604000D02*
G01*
X17151499Y7604000D01*
X17136501Y7598999D01*
X17131499Y7594000D01*
X17126501Y7584000D01*
X17126501Y7574000D01*
X17131499Y7564000D01*
X17136501Y7558999D01*
X17151499Y7554000D01*
X17196501Y7554000D01*
X17161499Y7554000D02*
G01*
X17126501Y7498999D01*
X16946501Y7588999D02*
G01*
X16956501Y7598999D01*
X16971500Y7604000D01*
X16991500Y7604000D01*
X17006501Y7598999D01*
X17016501Y7588999D01*
X17016501Y7578999D01*
X17011500Y7568999D01*
X17006501Y7564000D01*
X16996501Y7558999D01*
X16966501Y7548999D01*
X16956501Y7544000D01*
X16951500Y7538999D01*
X16946501Y7528999D01*
X16946501Y7514000D01*
X16956501Y7504000D01*
X16971500Y7498999D01*
X16991500Y7498999D01*
X17006501Y7504000D01*
X17016501Y7514000D01*
X16913501Y7538999D02*
G01*
X16853501Y7538999D01*
X16853501Y7548999D01*
X16858500Y7558999D01*
X16863501Y7564000D01*
X16873501Y7568999D01*
X16888500Y7568999D01*
X16898500Y7564000D01*
X16908500Y7554000D01*
X16913501Y7538999D01*
X16913501Y7528999D01*
X16908500Y7514000D01*
X16898500Y7504000D01*
X16888500Y7498999D01*
X16873501Y7498999D01*
X16863501Y7504000D01*
X16853501Y7514000D01*
X16820502Y7568999D02*
G01*
X16820502Y7498999D01*
X16820502Y7548999D02*
G01*
X16805501Y7564000D01*
X16795501Y7568999D01*
X16780502Y7568999D01*
X16770502Y7564000D01*
X16765501Y7548999D01*
X16765501Y7498999D01*
X16677500Y7554000D02*
G01*
X16682501Y7564000D01*
X16697500Y7568999D01*
X16712501Y7568999D01*
X16727500Y7564000D01*
X16732501Y7554000D01*
X16727500Y7544000D01*
X16717500Y7538999D01*
X16692501Y7534000D01*
X16682501Y7528999D01*
X16677500Y7518999D01*
X16677500Y7514000D01*
X16682501Y7504000D01*
X16697500Y7498999D01*
X16712501Y7498999D01*
X16727500Y7504000D01*
X16732501Y7514000D01*
X16619501Y7568999D02*
G01*
X16629501Y7564000D01*
X16639501Y7554000D01*
X16644500Y7538999D01*
X16644500Y7528999D01*
X16639501Y7514000D01*
X16629501Y7504000D01*
X16619501Y7498999D01*
X16604500Y7498999D01*
X16594500Y7504000D01*
X16584500Y7514000D01*
X16579502Y7528999D01*
X16579502Y7538999D01*
X16584500Y7554000D01*
X16594500Y7564000D01*
X16604500Y7568999D01*
X16619501Y7568999D01*
X16546502Y7568999D02*
G01*
X16546502Y7498999D01*
X16546502Y7538999D02*
G01*
X16541501Y7554000D01*
X16531501Y7564000D01*
X16521501Y7568999D01*
X16506502Y7568999D01*
X16356502Y7604000D02*
G01*
X16396502Y7498999D01*
X16356502Y7604000D02*
G01*
X16316502Y7498999D01*
X16381501Y7534000D02*
G01*
X16331501Y7534000D01*
X16283503Y7568999D02*
G01*
X16283503Y7498999D01*
X16283503Y7538999D02*
G01*
X16278501Y7554000D01*
X16268501Y7564000D01*
X16258501Y7568999D01*
X16243503Y7568999D01*
X16210503Y7568999D02*
G01*
X16210503Y7498999D01*
X16210503Y7538999D02*
G01*
X16205502Y7554000D01*
X16195502Y7564000D01*
X16185502Y7568999D01*
X16170503Y7568999D01*
X16077501Y7568999D02*
G01*
X16077501Y7498999D01*
X16077501Y7554000D02*
G01*
X16087501Y7564000D01*
X16097501Y7568999D01*
X16112502Y7568999D01*
X16122502Y7564000D01*
X16132502Y7554000D01*
X16137501Y7538999D01*
X16137501Y7528999D01*
X16132502Y7514000D01*
X16122502Y7504000D01*
X16112502Y7498999D01*
X16097501Y7498999D01*
X16087501Y7504000D01*
X16077501Y7514000D01*
X16039503Y7568999D02*
G01*
X16009503Y7498999D01*
X15979503Y7568999D02*
G01*
X16009503Y7498999D01*
X16019503Y7478999D01*
X16029503Y7468999D01*
X16039503Y7464000D01*
X16044501Y7464000D01*
X17233900Y7426200D02*
G01*
X17233900Y7321199D01*
X17233900Y7426200D02*
G01*
X17188901Y7426200D01*
X17173900Y7421199D01*
X17168901Y7416200D01*
X17163900Y7406200D01*
X17163900Y7396200D01*
X17168901Y7386200D01*
X17173900Y7381199D01*
X17188901Y7376200D01*
X17233900Y7376200D02*
G01*
X17188901Y7376200D01*
X17173900Y7371199D01*
X17168901Y7366200D01*
X17163900Y7356200D01*
X17163900Y7341199D01*
X17168901Y7331199D01*
X17173900Y7326200D01*
X17188901Y7321199D01*
X17233900Y7321199D01*
X17125899Y7391199D02*
G01*
X17095899Y7321199D01*
X17065899Y7391199D02*
G01*
X17095899Y7321199D01*
X17105899Y7301199D01*
X17115899Y7291199D01*
X17125899Y7286200D01*
X17130900Y7286200D01*
X16915899Y7426200D02*
G01*
X16955899Y7321199D01*
X16915899Y7426200D02*
G01*
X16875899Y7321199D01*
X16940900Y7356200D02*
G01*
X16890900Y7356200D01*
X16782900Y7391199D02*
G01*
X16782900Y7321199D01*
X16782900Y7376200D02*
G01*
X16792900Y7386200D01*
X16802900Y7391199D01*
X16817901Y7391199D01*
X16827901Y7386200D01*
X16837901Y7376200D01*
X16842900Y7361199D01*
X16842900Y7351199D01*
X16837901Y7336200D01*
X16827901Y7326200D01*
X16817901Y7321199D01*
X16802900Y7321199D01*
X16792900Y7326200D01*
X16782900Y7336200D01*
X16749900Y7391199D02*
G01*
X16749900Y7321199D01*
X16749900Y7361199D02*
G01*
X16744901Y7376200D01*
X16734901Y7386200D01*
X16724901Y7391199D01*
X16709900Y7391199D01*
X16676900Y7391199D02*
G01*
X16676900Y7341199D01*
X16671902Y7326200D01*
X16661902Y7321199D01*
X16646900Y7321199D01*
X16636900Y7326200D01*
X16621902Y7341199D01*
X16621902Y7391199D02*
G01*
X16621902Y7321199D01*
X16533901Y7376200D02*
G01*
X16538900Y7386200D01*
X16553901Y7391199D01*
X16568900Y7391199D01*
X16583901Y7386200D01*
X16588900Y7376200D01*
X16583901Y7366200D01*
X16573901Y7361199D01*
X16548900Y7356200D01*
X16538900Y7351199D01*
X16533901Y7341199D01*
X16533901Y7336200D01*
X16538900Y7326200D01*
X16553901Y7321199D01*
X16568900Y7321199D01*
X16583901Y7326200D01*
X16588900Y7336200D01*
X16500901Y7426200D02*
G01*
X16500901Y7321199D01*
X16500901Y7371199D02*
G01*
X16485900Y7386200D01*
X16475900Y7391199D01*
X16460901Y7391199D01*
X16450901Y7386200D01*
X16445900Y7371199D01*
X16445900Y7321199D01*
X16412900Y7391199D02*
G01*
X16412900Y7321199D01*
X16412900Y7361199D02*
G01*
X16407902Y7376200D01*
X16397902Y7386200D01*
X16387902Y7391199D01*
X16372900Y7391199D01*
X16279901Y7391199D02*
G01*
X16279901Y7321199D01*
X16279901Y7376200D02*
G01*
X16289901Y7386200D01*
X16299901Y7391199D01*
X16314902Y7391199D01*
X16324902Y7386200D01*
X16334902Y7376200D01*
X16339901Y7361199D01*
X16339901Y7351199D01*
X16334902Y7336200D01*
X16324902Y7326200D01*
X16314902Y7321199D01*
X16299901Y7321199D01*
X16289901Y7326200D01*
X16279901Y7336200D01*
X16226901Y7426200D02*
G01*
X16221903Y7421199D01*
X16216901Y7426200D01*
X16221903Y7431199D01*
X16226901Y7426200D01*
X16221903Y7391199D02*
G01*
X16221903Y7306200D01*
X16226901Y7291199D01*
X16236901Y7286200D01*
X16246901Y7286200D01*
D11*
X15481300Y8318500D02*
G01*
X21151850Y8318500D01*
X21151850Y8051800D01*
X15481300Y8051800D01*
X15481300Y8318500D01*
M02*
