G04 Layer: TopLayer*
G04 EasyEDA v6.5.40, 2024-04-07 17:54:18*
G04 Gerber Generator version 0.2*
G04 Scale: 100 percent, Rotated: No, Reflected: No *
G04 Dimensions in millimeters *
G04 leading zeros omitted , absolute positions ,4 integer and 5 decimal *
%FSLAX45Y45*%
%MOMM*%

%AMMACRO1*21,1,$1,$2,0,0,$3*%
%ADD10C,0.2540*%
%ADD11C,0.2600*%
%ADD12C,0.3500*%
%ADD13MACRO1,0.864X0.8065X90.0000*%
%ADD14MACRO1,0.864X0.8065X0.0000*%
%ADD15R,0.8640X0.8065*%
%ADD16MACRO1,0.864X0.8065X-90.0000*%
%ADD17C,1.5240*%
%ADD18C,0.0183*%

%LPD*%
D10*
X21310600Y9309963D02*
G01*
X21324163Y9296400D01*
X21463000Y9296400D01*
X21463000Y9334500D01*
X22225000Y9322562D01*
D11*
X22898100Y7891018D02*
G01*
X22779481Y7772400D01*
X22580600Y7772400D01*
X22326600Y8026400D01*
X22326600Y8318500D01*
X22059900Y8585200D01*
X21247100Y8585200D01*
X21183600Y8521700D01*
X19240500Y8521700D01*
X19189700Y8470900D01*
X18669000Y8470900D01*
X18669000Y8178800D01*
X21920200Y8894318D02*
G01*
X21776181Y8750300D01*
X21183600Y8750300D01*
X21183600Y8610600D01*
X21145500Y8572500D01*
X19227800Y8572500D01*
X19177000Y8521700D01*
X18554700Y8521700D01*
X18415000Y8178800D01*
X18415000Y8178800D01*
X18415000Y8178800D01*
D12*
X23901400Y6900418D02*
G01*
X23782781Y6781800D01*
X23241000Y6781800D01*
X21551900Y8470900D01*
X19265900Y8470900D01*
X18999200Y8178800D01*
X18923000Y8178800D01*
D10*
X20929600Y8894315D02*
G01*
X20853400Y8818115D01*
X20853400Y8712200D01*
X20281900Y8712200D01*
X20193000Y8623300D01*
X19215100Y8623300D01*
X19164300Y8572500D01*
X18415000Y8572500D01*
X18161000Y8318500D01*
X18161000Y8178800D01*
D12*
X24650700Y4169918D02*
G01*
X24493981Y4013200D01*
X24155400Y4013200D01*
X24079200Y4089400D01*
X24079200Y5016500D01*
X23634700Y5461000D01*
X23634700Y6175247D01*
X21440648Y8369300D01*
X19545300Y8369300D01*
X19545300Y8178800D01*
X19418300Y8178800D01*
X24396700Y5668518D02*
G01*
X24239981Y5511800D01*
X23710900Y5524500D01*
X23710900Y6223000D01*
X21513800Y8420100D01*
X19392900Y8420100D01*
X19177000Y8178800D01*
X12623800Y4128262D02*
G01*
X12928600Y4433062D01*
X12928600Y5448300D01*
X14516100Y7035800D01*
X14516100Y7264400D01*
X15049500Y7797800D01*
X15049500Y7962900D01*
X15303500Y8216900D01*
X15621000Y8216900D01*
X15621000Y8178800D01*
X12852400Y5576062D02*
G01*
X12965938Y5689600D01*
X13093700Y5689600D01*
X14465300Y7061200D01*
X14465300Y7302500D01*
X14998700Y7835900D01*
X14998700Y7988300D01*
X15328900Y8318500D01*
X15862300Y8318500D01*
X15875000Y8305800D01*
X15875000Y8178800D01*
X13360400Y6871462D02*
G01*
X13397738Y6908800D01*
X14224000Y6908800D01*
X14401800Y7086600D01*
X14401800Y7327900D01*
X14935200Y7861300D01*
X14935200Y8026400D01*
X15303500Y8394700D01*
X16103600Y8394700D01*
X16129000Y8369300D01*
X16129000Y8178800D01*
X14338300Y7849362D02*
G01*
X14820900Y7848600D01*
X14859000Y7886700D01*
X14859000Y8089900D01*
X15214600Y8445500D01*
X16370300Y8445500D01*
X16383000Y8432800D01*
X16383000Y8178800D01*
X15316200Y8814663D02*
G01*
X15316200Y8496300D01*
X16637000Y8496300D01*
X16637000Y8178800D01*
X16306800Y8814562D02*
G01*
X16306800Y8559800D01*
X16319500Y8547100D01*
X16891000Y8547100D01*
X16891000Y8178800D01*
X17310100Y8814663D02*
G01*
X17195800Y8700363D01*
X17195800Y8547100D01*
X17183100Y8534400D01*
X17145000Y8534400D01*
X17145000Y8178800D01*
X17945100Y8894318D02*
G01*
X17881600Y8830818D01*
X17881600Y8636000D01*
X17399000Y8636000D01*
X17399000Y8178800D01*
X18935700Y8894318D02*
G01*
X18897600Y8856218D01*
X18897600Y8699500D01*
X18249900Y8699500D01*
X18135600Y8585200D01*
X17653000Y8585200D01*
X17653000Y8178800D01*
D10*
X19939000Y8894318D02*
G01*
X19875500Y8830818D01*
X19875500Y8724900D01*
X19253200Y8724900D01*
X19151600Y8623300D01*
X18444209Y8623300D01*
X18262600Y8623300D01*
X18161000Y8521700D01*
X17907000Y8521700D01*
X17907000Y8178800D01*
D12*
X15951169Y8894376D02*
G01*
X16030882Y8814663D01*
X16306800Y8814663D01*
X11976100Y4169918D02*
G01*
X12272518Y3873500D01*
X12598400Y3873500D01*
X13030200Y4305300D01*
X13030200Y5448300D01*
X14579600Y6997700D01*
X14579600Y7239000D01*
X15113000Y7772400D01*
X15113000Y7937500D01*
X15328900Y8153400D01*
X15497047Y7988300D01*
X19799300Y7988300D01*
X19799300Y8293100D01*
X20713700Y8293100D01*
X20802600Y8178800D01*
X20180300Y8178800D02*
G01*
X20574000Y8178800D01*
X19926300Y8178800D02*
G01*
X19926300Y8064500D01*
X21628100Y8064500D01*
X23545800Y6146800D01*
X23545800Y5359400D01*
X23990300Y4914900D01*
X23990300Y3810000D01*
X25095200Y3810000D01*
X25095200Y4126737D01*
X24993600Y4228337D01*
X22363836Y8902700D02*
G01*
X22478136Y8788400D01*
X23215600Y8788400D01*
X23354436Y8649563D01*
X23354436Y8420100D01*
X21920200Y8894394D02*
G01*
X21928505Y8902700D01*
X22213163Y8902700D01*
X22644100Y8441181D02*
G01*
X22776434Y8308847D01*
X22776434Y8001000D01*
X22644100Y7891018D02*
G01*
X22754081Y8001000D01*
X22961600Y8001000D01*
X22999700Y7962900D01*
X23355300Y7962900D01*
X23380700Y7937500D01*
X23380700Y7848600D01*
X23647400Y7581900D01*
X23647400Y7450581D01*
X23266400Y8038337D02*
G01*
X23368761Y8038337D01*
X23507700Y7899400D01*
X23507700Y7823200D01*
X23558500Y7772400D01*
X24028400Y7772400D01*
X24168100Y7632700D01*
X24168100Y7442200D01*
X24370538Y7239762D01*
X24370538Y7200900D01*
X17691100Y9753600D02*
G01*
X18681700Y9753600D01*
X18681700Y9444405D01*
X19685000Y9753600D02*
G01*
X20675600Y9753600D01*
X20675600Y9444405D01*
X21666200Y9444405D02*
G01*
X21666200Y9753600D01*
X21615400Y9753600D01*
X20675600Y9753600D01*
D10*
X17310100Y9321800D02*
G01*
X17349068Y9283700D01*
X17437100Y9283700D01*
X17437100Y8775700D01*
X17449800Y8763000D01*
X17805400Y8763000D01*
X17818100Y8775700D01*
X17818100Y8991600D01*
X17830800Y9004300D01*
X18186400Y9004300D01*
X18199100Y9017000D01*
X18288000Y9105900D01*
X18288000Y9335363D01*
X18288000Y9335361D02*
G01*
X18288000Y8978036D01*
X18300700Y8965336D01*
D12*
X23901400Y7449820D02*
G01*
X24046179Y7449820D01*
X24180800Y7315200D01*
X24219661Y7200900D01*
X23647400Y7450505D02*
G01*
X23774400Y7323505D01*
X23774400Y7086600D01*
X23647400Y6959600D01*
X23647400Y6900494D01*
X15697169Y9444388D02*
G01*
X15701581Y9448800D01*
X15824200Y9448800D01*
X15824200Y9055100D01*
X15697169Y8928069D01*
X15697169Y8894376D01*
X17691100Y9444405D02*
G01*
X17695494Y9448800D01*
X17805400Y9448800D01*
X17818100Y9436100D01*
X17818100Y9080500D01*
X17691100Y8953500D01*
X17691100Y8894394D01*
X18681700Y9444405D02*
G01*
X18690005Y9436100D01*
X18808700Y9436100D01*
X18808700Y9093200D01*
X18681700Y8966200D01*
X18681700Y8894394D01*
X19685000Y9444481D02*
G01*
X19693381Y9436100D01*
X19824700Y9436100D01*
X19824700Y9080500D01*
X19685000Y8940800D01*
X19685000Y8894318D01*
D10*
X13360400Y7022238D02*
G01*
X12915031Y7022238D01*
X12865100Y6972305D01*
X12865100Y6272936D01*
X12991236Y6146800D01*
D12*
X24993600Y4228236D02*
G01*
X24968200Y4253636D01*
X24968200Y4546600D01*
X25081636Y4660036D01*
X25081636Y4711700D01*
X24930963Y4711700D02*
G01*
X24922657Y4720005D01*
X24650700Y4720005D01*
X24396700Y5668594D02*
G01*
X24463730Y5601563D01*
X24790400Y5601563D01*
X24740463Y6172200D02*
G01*
X24694057Y6218605D01*
X24396700Y6218605D01*
X22898100Y7891094D02*
G01*
X22901630Y7887563D01*
X23266400Y7887563D01*
X23203763Y8420100D02*
G01*
X23182757Y8441105D01*
X22898100Y8441105D01*
X20929600Y9444403D02*
G01*
X20945833Y9460636D01*
X21310600Y9460636D01*
X18935700Y9444403D02*
G01*
X18951933Y9460636D01*
X19304000Y9460636D01*
X15951169Y9444388D02*
G01*
X15992817Y9486036D01*
X16306800Y9486036D01*
X15328900Y9486137D02*
G01*
X14960600Y9486137D01*
X14960600Y9444481D01*
X15316200Y8814663D02*
G01*
X15236469Y8894394D01*
X14960600Y8894394D01*
X16941800Y9444405D02*
G01*
X16970730Y9473336D01*
X17310100Y9473336D01*
X12484100Y6205903D02*
G01*
X12543203Y6146800D01*
X12840563Y6146800D01*
X24993600Y4077563D02*
G01*
X24901169Y4169994D01*
X24650700Y4169994D01*
X24396700Y4169994D02*
G01*
X24511000Y4284294D01*
X24511000Y4605705D01*
X24396700Y4720005D01*
X24790400Y5752337D02*
G01*
X24993600Y5752337D01*
X24993600Y4876800D01*
X25081738Y4788662D01*
X25081738Y4711700D01*
X24142700Y5668594D02*
G01*
X24168100Y5693994D01*
X24168100Y5765800D01*
X24269700Y5867400D01*
X24269700Y6108700D01*
X24159794Y6218605D01*
X24142700Y6218605D01*
X24142700Y5668594D02*
G01*
X24252605Y5778500D01*
X24472900Y5778500D01*
X24574500Y5676900D01*
X24904700Y5676900D01*
X24904700Y5130800D01*
X24396700Y5130800D01*
X24396700Y4720005D01*
X24891136Y6172200D02*
G01*
X24790400Y6071463D01*
X24790400Y5752236D01*
X24269700Y6946137D02*
G01*
X24499061Y6946137D01*
X24701500Y6743700D01*
X24701500Y6540500D01*
X24891238Y6350762D01*
X24891238Y6172200D01*
X23647400Y6900418D02*
G01*
X23757381Y7010400D01*
X24028400Y7010400D01*
X24168100Y6870700D01*
X24434800Y6870700D01*
X24434800Y6540500D01*
X24142700Y6540500D01*
X24142700Y6218605D01*
X12230100Y4169996D02*
G01*
X12271733Y4128363D01*
X12623800Y4128363D01*
X12484100Y5655894D02*
G01*
X12513894Y5626100D01*
X12661900Y5626100D01*
X12711836Y5576163D01*
X12852400Y5576163D01*
X12230100Y6205981D02*
G01*
X12230100Y6205905D01*
X12725400Y6900494D01*
X12725400Y6900494D01*
X12725400Y6900418D01*
X12230100Y5655818D02*
G01*
X12357100Y5829300D01*
X12357100Y6205981D01*
X12230100Y6205981D01*
X13716000Y8441105D02*
G01*
X14465300Y8890000D01*
X14706600Y8894394D01*
X14706600Y8894394D01*
X14706600Y8894394D01*
X12725400Y7450505D02*
G01*
X13165988Y7891094D01*
X13716000Y7891094D01*
X23354436Y8420100D02*
G01*
X23266400Y8332063D01*
X23266400Y8038236D01*
X21666200Y8894318D02*
G01*
X21759418Y8894318D01*
X21869400Y9004300D01*
X22288500Y9004300D01*
X22288500Y8572500D01*
X22419818Y8441181D01*
X22644100Y8441181D01*
X16675100Y9753600D02*
G01*
X17691100Y9753600D01*
X17691100Y9444405D01*
X15697200Y9753600D02*
G01*
X16675100Y9753600D01*
X16687800Y9740900D01*
X16687800Y9444405D01*
X15697200Y9444481D02*
G01*
X15697200Y9753600D01*
X14744700Y9753600D01*
X14744700Y9482581D01*
X14706600Y9444481D01*
X14706600Y9444481D02*
G01*
X14706600Y9444405D01*
X14833600Y9423400D01*
X14833600Y9055100D01*
X14706600Y8894318D01*
X13716000Y7891018D02*
G01*
X13843000Y8064500D01*
X13843000Y8432800D01*
X13716000Y8441181D01*
X13360400Y7441336D02*
G01*
X13351230Y7450505D01*
X12979400Y7450505D01*
X13360400Y7290663D02*
G01*
X13360400Y7022236D01*
X21920200Y9444403D02*
G01*
X21949133Y9473336D01*
X22225000Y9473336D01*
X22225000Y9322663D02*
G01*
X22363831Y9183832D01*
X22363831Y8902700D01*
X21310600Y9309961D02*
G01*
X21310600Y9028836D01*
X20675600Y9444405D02*
G01*
X20679994Y9448800D01*
X20802600Y9448800D01*
X20802600Y9055100D01*
X20675600Y8928100D01*
X20675600Y8894394D01*
X20369931Y8890000D02*
G01*
X20484231Y8775700D01*
X20789900Y8775700D01*
X20802600Y8788400D01*
X20802600Y8978900D01*
X20827987Y9004294D01*
X20852531Y9028836D01*
X21310600Y9028836D01*
X11976100Y4169918D02*
G01*
X12103100Y4169918D01*
X12103100Y4720081D01*
X11976100Y4720081D01*
D10*
X12852400Y5726937D02*
G01*
X12813543Y5765800D01*
X12369800Y5765800D01*
X12369800Y5473700D01*
X12724536Y5118963D01*
X12724536Y4699000D01*
D12*
X11976100Y4720005D02*
G01*
X11976100Y5651500D01*
X12225705Y5651500D01*
X12230100Y5655894D01*
X12725400Y6900418D02*
G01*
X12852400Y7035800D01*
X12852400Y7404100D01*
X12725400Y7450505D01*
X12725400Y7450581D01*
D10*
X19304000Y9309963D02*
G01*
X19317563Y9296400D01*
X19443700Y9296400D01*
X19443700Y8801100D01*
X19469100Y8775700D01*
X19748500Y8775700D01*
X19812000Y8839200D01*
X19812000Y8978900D01*
X19837400Y9004300D01*
X20180300Y9004300D01*
X20193000Y9017000D01*
X20193000Y9296400D01*
X20206568Y9309961D01*
X20307300Y9309961D01*
X23901400Y6900494D02*
G01*
X24006530Y6795363D01*
X24269700Y6795363D01*
X24370436Y7200900D02*
G01*
X24269700Y7100163D01*
X24269700Y6946038D01*
D12*
X20929600Y8894396D02*
G01*
X20945833Y8878163D01*
X21310600Y8878163D01*
X20219263Y8890000D02*
G01*
X20214869Y8894394D01*
X19939000Y8894394D01*
D10*
X20307300Y9309963D02*
G01*
X20369936Y9247327D01*
X20369936Y8890000D01*
D12*
X20307300Y9460636D02*
G01*
X20291069Y9444405D01*
X19939000Y9444405D01*
D10*
X19304000Y9309961D02*
G01*
X19304000Y9003436D01*
D12*
X18935700Y8894396D02*
G01*
X18977333Y8852763D01*
X19304000Y8852763D01*
D10*
X18300700Y8965336D02*
G01*
X18503036Y8763000D01*
X18732500Y8763000D01*
X18808700Y8839200D01*
X18808700Y8978900D01*
X18834100Y9004300D01*
X19037300Y9004300D01*
X19038168Y9003438D01*
X19304000Y9003438D01*
D12*
X18300700Y8814663D02*
G01*
X18220966Y8894396D01*
X17945100Y8894396D01*
X17945100Y9444403D02*
G01*
X17986733Y9486036D01*
X18288000Y9486036D01*
X18681700Y9753600D02*
G01*
X19685000Y9753600D01*
X19685000Y9444405D01*
X16941800Y8894394D02*
G01*
X17021530Y8814663D01*
X17310100Y8814663D01*
D10*
X17310100Y9322663D02*
G01*
X17310100Y8965336D01*
X16687800Y8894394D02*
G01*
X16687800Y8940800D01*
X16827500Y9080500D01*
X16814800Y9093200D01*
X16814800Y9359900D01*
X16730294Y9444405D01*
X16687800Y9444405D01*
X16306800Y8965336D02*
G01*
X16496436Y8775700D01*
X16789400Y8775700D01*
X16827500Y8813800D01*
X16827500Y8991600D01*
X16840200Y9004300D01*
X17005300Y9004300D01*
X17044263Y8965336D01*
X17310100Y8965336D01*
X16306800Y9335363D02*
G01*
X16306800Y8965336D01*
X15328900Y9335262D02*
G01*
X15468600Y9195562D01*
X15468600Y8890000D01*
X15468600Y8750300D01*
X15811500Y8750300D01*
X15811500Y8953500D01*
X15862300Y9004300D01*
X16192500Y9004300D01*
X16193261Y9335262D01*
X16306800Y9335262D01*
X15316200Y8965336D02*
G01*
X15277236Y9004300D01*
X14871700Y9004300D01*
X14833600Y8966200D01*
X14833600Y8763000D01*
X14415363Y8344763D01*
X14325600Y8344763D01*
X15328900Y9335363D02*
G01*
X15316200Y9322663D01*
X15316200Y8965336D01*
D12*
X13970000Y8441105D02*
G01*
X14024330Y8495436D01*
X14325600Y8495436D01*
D10*
X14338300Y8000136D02*
G01*
X13867536Y8000136D01*
X13855700Y7988300D01*
X13855700Y7785963D01*
X13360400Y7290663D01*
D12*
X13970000Y7891094D02*
G01*
X14011630Y7849463D01*
X14338300Y7849463D01*
D10*
X14325600Y8344763D02*
G01*
X14338300Y8332063D01*
X14338300Y8000136D01*
X13360400Y6871563D02*
G01*
X13331469Y6900494D01*
X12979400Y6900494D01*
X12852400Y5726838D02*
G01*
X12991236Y5865675D01*
X12991236Y6146800D01*
X12724536Y4699000D02*
G01*
X12623800Y4598263D01*
X12623800Y4279038D01*
D12*
X12230100Y4720003D02*
G01*
X12251103Y4699000D01*
X12573863Y4699000D01*
D13*
G01*
X12724524Y4699000D03*
G01*
X12573875Y4699000D03*
D14*
G01*
X12623800Y4128375D03*
D15*
G01*
X12623800Y4279036D03*
D13*
G01*
X12991224Y6146800D03*
G01*
X12840575Y6146800D03*
D14*
G01*
X12852400Y5576175D03*
D15*
G01*
X12852400Y5726836D03*
D14*
G01*
X13360400Y7290675D03*
D15*
G01*
X13360400Y7441336D03*
D14*
G01*
X13360400Y6871575D03*
D15*
G01*
X13360400Y7022236D03*
D14*
G01*
X14325600Y8344775D03*
D15*
G01*
X14325600Y8495436D03*
D14*
G01*
X14338300Y7849475D03*
D15*
G01*
X14338300Y8000136D03*
D14*
G01*
X15328900Y9335375D03*
D15*
G01*
X15328900Y9486036D03*
D14*
G01*
X15316200Y8814675D03*
D15*
G01*
X15316200Y8965336D03*
D14*
G01*
X16306800Y9335375D03*
D15*
G01*
X16306800Y9486036D03*
D14*
G01*
X16306800Y8814675D03*
D15*
G01*
X16306800Y8965336D03*
D14*
G01*
X17310100Y9322675D03*
D15*
G01*
X17310100Y9473336D03*
D14*
G01*
X17310100Y8814675D03*
D15*
G01*
X17310100Y8965336D03*
D14*
G01*
X18288000Y9335375D03*
D15*
G01*
X18288000Y9486036D03*
D14*
G01*
X18300700Y8814675D03*
D15*
G01*
X18300700Y8965336D03*
D14*
G01*
X19304000Y9309975D03*
D15*
G01*
X19304000Y9460636D03*
D14*
G01*
X19304000Y8852775D03*
D15*
G01*
X19304000Y9003436D03*
D14*
G01*
X20307300Y9309975D03*
D15*
G01*
X20307300Y9460636D03*
D16*
G01*
X20219275Y8890000D03*
G01*
X20369924Y8890000D03*
D14*
G01*
X21310600Y8878175D03*
D15*
G01*
X21310600Y9028836D03*
D14*
G01*
X21310600Y9309975D03*
D15*
G01*
X21310600Y9460636D03*
D16*
G01*
X22213175Y8902700D03*
G01*
X22363824Y8902700D03*
D14*
G01*
X22225000Y9322675D03*
D15*
G01*
X22225000Y9473336D03*
D14*
G01*
X23266400Y7887575D03*
D15*
G01*
X23266400Y8038236D03*
D13*
G01*
X23354424Y8420100D03*
G01*
X23203775Y8420100D03*
D14*
G01*
X24269700Y6795375D03*
D15*
G01*
X24269700Y6946036D03*
D13*
G01*
X24370424Y7200900D03*
G01*
X24219775Y7200900D03*
D14*
G01*
X24790400Y5601575D03*
D15*
G01*
X24790400Y5752236D03*
D13*
G01*
X24891124Y6172200D03*
G01*
X24740475Y6172200D03*
G01*
X25081624Y4711700D03*
G01*
X24930975Y4711700D03*
D14*
G01*
X24993600Y4077575D03*
D15*
G01*
X24993600Y4228236D03*
D17*
G01*
X15697169Y9444388D03*
G01*
X15951169Y9444388D03*
G01*
X15697169Y8894376D03*
G01*
X15951169Y8894376D03*
G01*
X11976100Y4720005D03*
G01*
X12230100Y4720005D03*
G01*
X11976100Y4169994D03*
G01*
X12230100Y4169994D03*
G01*
X12230100Y6205905D03*
G01*
X12484100Y6205905D03*
G01*
X12230100Y5655894D03*
G01*
X12484100Y5655894D03*
G01*
X12725400Y7450505D03*
G01*
X12979400Y7450505D03*
G01*
X12725400Y6900494D03*
G01*
X12979400Y6900494D03*
G01*
X13716000Y8441105D03*
G01*
X13970000Y8441105D03*
G01*
X13716000Y7891094D03*
G01*
X13970000Y7891094D03*
G01*
X14706600Y9444405D03*
G01*
X14960600Y9444405D03*
G01*
X14706600Y8894394D03*
G01*
X14960600Y8894394D03*
G01*
X16687800Y9444405D03*
G01*
X16941800Y9444405D03*
G01*
X16687800Y8894394D03*
G01*
X16941800Y8894394D03*
G01*
X17691100Y9444405D03*
G01*
X17945100Y9444405D03*
G01*
X17691100Y8894394D03*
G01*
X17945100Y8894394D03*
G01*
X18681700Y9444405D03*
G01*
X18935700Y9444405D03*
G01*
X18681700Y8894394D03*
G01*
X18935700Y8894394D03*
G01*
X19685000Y9444405D03*
G01*
X19939000Y9444405D03*
G01*
X19685000Y8894394D03*
G01*
X19939000Y8894394D03*
G01*
X20675600Y9444405D03*
G01*
X20929600Y9444405D03*
G01*
X20675600Y8894394D03*
G01*
X20929600Y8894394D03*
G01*
X21666200Y9444405D03*
G01*
X21920200Y9444405D03*
G01*
X21666200Y8894394D03*
G01*
X21920200Y8894394D03*
G01*
X22644100Y8441105D03*
G01*
X22898100Y8441105D03*
G01*
X22644100Y7891094D03*
G01*
X22898100Y7891094D03*
G01*
X23647400Y7450505D03*
G01*
X23901400Y7450505D03*
G01*
X23647400Y6900494D03*
G01*
X23901400Y6900494D03*
G01*
X24142700Y6218605D03*
G01*
X24396700Y6218605D03*
G01*
X24142700Y5668594D03*
G01*
X24396700Y5668594D03*
G01*
X24396700Y4720005D03*
G01*
X24650700Y4720005D03*
G01*
X24396700Y4169994D03*
G01*
X24650700Y4169994D03*
G01*
X15621000Y8178800D03*
G01*
X15875000Y8178800D03*
G01*
X16129000Y8178800D03*
G01*
X16383000Y8178800D03*
G01*
X16637000Y8178800D03*
G01*
X16891000Y8178800D03*
G01*
X17145000Y8178800D03*
G01*
X17399000Y8178800D03*
G01*
X17653000Y8178800D03*
G01*
X17907000Y8178800D03*
G01*
X18161000Y8178800D03*
G01*
X18415000Y8178800D03*
G01*
X18669000Y8178800D03*
G01*
X18923000Y8178800D03*
G01*
X19177000Y8178800D03*
G01*
X19418300Y8178800D03*
G01*
X19685000Y8178800D03*
G01*
X19926300Y8178800D03*
G01*
X20180300Y8178800D03*
G01*
X20574000Y8178800D03*
G01*
X20802600Y8178800D03*
G01*
X21018500Y8178800D03*
M02*
