G04 Layer: TopSolderMaskLayer*
G04 EasyEDA v6.5.40, 2024-04-07 17:54:18*
G04 Gerber Generator version 0.2*
G04 Scale: 100 percent, Rotated: No, Reflected: No *
G04 Dimensions in millimeters *
G04 leading zeros omitted , absolute positions ,4 integer and 5 decimal *
%FSLAX45Y45*%
%MOMM*%

%AMMACRO1*1,1,$1,$2,$3*1,1,$1,$4,$5*1,1,$1,0-$2,0-$3*1,1,$1,0-$4,0-$5*20,1,$1,$2,$3,$4,$5,0*20,1,$1,$4,$5,0-$2,0-$3,0*20,1,$1,0-$2,0-$3,0-$4,0-$5,0*20,1,$1,0-$4,0-$5,$2,$3,0*4,1,4,$2,$3,$4,$5,0-$2,0-$3,0-$4,0-$5,$2,$3,0*%
%ADD10C,1.6240*%
%ADD11MACRO1,0.1016X-0.4032X-0.432X-0.4032X0.432*%
%ADD12MACRO1,0.1016X0.4032X-0.432X0.4032X0.432*%
%ADD13MACRO1,0.1016X-0.432X0.4032X0.432X0.4032*%
%ADD14MACRO1,0.1016X-0.432X-0.4032X0.432X-0.4032*%
%ADD15MACRO1,0.1016X0.4032X0.432X0.4032X-0.432*%
%ADD16MACRO1,0.1016X-0.4032X0.432X-0.4032X-0.432*%
%ADD17C,1.6256*%

%LPD*%
D10*
G01*
X15697169Y9444388D03*
G01*
X15951169Y9444388D03*
G01*
X15697169Y8894376D03*
G01*
X15951169Y8894376D03*
D11*
G01*
X12724524Y4699000D03*
D12*
G01*
X12573875Y4699000D03*
D13*
G01*
X12623800Y4128375D03*
D14*
G01*
X12623800Y4279024D03*
D11*
G01*
X12991224Y6146800D03*
D12*
G01*
X12840575Y6146800D03*
D13*
G01*
X12852400Y5576175D03*
D14*
G01*
X12852400Y5726824D03*
D13*
G01*
X13360400Y7290675D03*
D14*
G01*
X13360400Y7441324D03*
D13*
G01*
X13360400Y6871575D03*
D14*
G01*
X13360400Y7022224D03*
D13*
G01*
X14325600Y8344775D03*
D14*
G01*
X14325600Y8495424D03*
D13*
G01*
X14338300Y7849475D03*
D14*
G01*
X14338300Y8000124D03*
D13*
G01*
X15328900Y9335375D03*
D14*
G01*
X15328900Y9486024D03*
D13*
G01*
X15316200Y8814675D03*
D14*
G01*
X15316200Y8965324D03*
D13*
G01*
X16306800Y9335375D03*
D14*
G01*
X16306800Y9486024D03*
D13*
G01*
X16306800Y8814675D03*
D14*
G01*
X16306800Y8965324D03*
D13*
G01*
X17310100Y9322675D03*
D14*
G01*
X17310100Y9473324D03*
D13*
G01*
X17310100Y8814675D03*
D14*
G01*
X17310100Y8965324D03*
D13*
G01*
X18288000Y9335375D03*
D14*
G01*
X18288000Y9486024D03*
D13*
G01*
X18300700Y8814675D03*
D14*
G01*
X18300700Y8965324D03*
D13*
G01*
X19304000Y9309975D03*
D14*
G01*
X19304000Y9460624D03*
D13*
G01*
X19304000Y8852775D03*
D14*
G01*
X19304000Y9003424D03*
D13*
G01*
X20307300Y9309975D03*
D14*
G01*
X20307300Y9460624D03*
D15*
G01*
X20219275Y8890000D03*
D16*
G01*
X20369924Y8890000D03*
D13*
G01*
X21310600Y8878175D03*
D14*
G01*
X21310600Y9028824D03*
D13*
G01*
X21310600Y9309975D03*
D14*
G01*
X21310600Y9460624D03*
D15*
G01*
X22213175Y8902700D03*
D16*
G01*
X22363824Y8902700D03*
D13*
G01*
X22225000Y9322675D03*
D14*
G01*
X22225000Y9473324D03*
D13*
G01*
X23266400Y7887575D03*
D14*
G01*
X23266400Y8038224D03*
D11*
G01*
X23354424Y8420100D03*
D12*
G01*
X23203775Y8420100D03*
D13*
G01*
X24269700Y6795375D03*
D14*
G01*
X24269700Y6946024D03*
D11*
G01*
X24370424Y7200900D03*
D12*
G01*
X24219775Y7200900D03*
D13*
G01*
X24790400Y5601575D03*
D14*
G01*
X24790400Y5752224D03*
D11*
G01*
X24891124Y6172200D03*
D12*
G01*
X24740475Y6172200D03*
D11*
G01*
X25081624Y4711700D03*
D12*
G01*
X24930975Y4711700D03*
D13*
G01*
X24993600Y4077575D03*
D14*
G01*
X24993600Y4228224D03*
D10*
G01*
X11976100Y4720005D03*
G01*
X12230100Y4720005D03*
G01*
X11976100Y4169994D03*
G01*
X12230100Y4169994D03*
G01*
X12230100Y6205905D03*
G01*
X12484100Y6205905D03*
G01*
X12230100Y5655894D03*
G01*
X12484100Y5655894D03*
G01*
X12725400Y7450505D03*
G01*
X12979400Y7450505D03*
G01*
X12725400Y6900494D03*
G01*
X12979400Y6900494D03*
G01*
X13716000Y8441105D03*
G01*
X13970000Y8441105D03*
G01*
X13716000Y7891094D03*
G01*
X13970000Y7891094D03*
G01*
X14706600Y9444405D03*
G01*
X14960600Y9444405D03*
G01*
X14706600Y8894394D03*
G01*
X14960600Y8894394D03*
G01*
X16687800Y9444405D03*
G01*
X16941800Y9444405D03*
G01*
X16687800Y8894394D03*
G01*
X16941800Y8894394D03*
G01*
X17691100Y9444405D03*
G01*
X17945100Y9444405D03*
G01*
X17691100Y8894394D03*
G01*
X17945100Y8894394D03*
G01*
X18681700Y9444405D03*
G01*
X18935700Y9444405D03*
G01*
X18681700Y8894394D03*
G01*
X18935700Y8894394D03*
G01*
X19685000Y9444405D03*
G01*
X19939000Y9444405D03*
G01*
X19685000Y8894394D03*
G01*
X19939000Y8894394D03*
G01*
X20675600Y9444405D03*
G01*
X20929600Y9444405D03*
G01*
X20675600Y8894394D03*
G01*
X20929600Y8894394D03*
G01*
X21666200Y9444405D03*
G01*
X21920200Y9444405D03*
G01*
X21666200Y8894394D03*
G01*
X21920200Y8894394D03*
G01*
X22644100Y8441105D03*
G01*
X22898100Y8441105D03*
G01*
X22644100Y7891094D03*
G01*
X22898100Y7891094D03*
G01*
X23647400Y7450505D03*
G01*
X23901400Y7450505D03*
G01*
X23647400Y6900494D03*
G01*
X23901400Y6900494D03*
G01*
X24142700Y6218605D03*
G01*
X24396700Y6218605D03*
G01*
X24142700Y5668594D03*
G01*
X24396700Y5668594D03*
G01*
X24396700Y4720005D03*
G01*
X24650700Y4720005D03*
G01*
X24396700Y4169994D03*
G01*
X24650700Y4169994D03*
D17*
G01*
X15621000Y8178800D03*
G01*
X15875000Y8178800D03*
G01*
X16129000Y8178800D03*
G01*
X16383000Y8178800D03*
G01*
X16637000Y8178800D03*
G01*
X16891000Y8178800D03*
G01*
X17145000Y8178800D03*
G01*
X17399000Y8178800D03*
G01*
X17653000Y8178800D03*
G01*
X17907000Y8178800D03*
G01*
X18161000Y8178800D03*
G01*
X18415000Y8178800D03*
G01*
X18669000Y8178800D03*
G01*
X18923000Y8178800D03*
G01*
X19177000Y8178800D03*
G01*
X19418300Y8178800D03*
G01*
X19685000Y8178800D03*
G01*
X19926300Y8178800D03*
G01*
X20180300Y8178800D03*
G01*
X20574000Y8178800D03*
G01*
X20802600Y8178800D03*
G01*
X21018500Y8178800D03*
M02*
