%TF.GenerationSoftware,KiCad,Pcbnew,9.0.7*%
%TF.CreationDate,2026-01-22T15:28:45+05:00*%
%TF.ProjectId,PCB,5043422e-6b69-4636-9164-5f7063625858,rev?*%
%TF.SameCoordinates,Original*%
%TF.FileFunction,Copper,L2,Bot*%
%TF.FilePolarity,Positive*%
%FSLAX46Y46*%
G04 Gerber Fmt 4.6, Leading zero omitted, Abs format (unit mm)*
G04 Created by KiCad (PCBNEW 9.0.7) date 2026-01-22 15:28:45*
%MOMM*%
%LPD*%
G01*
G04 APERTURE LIST*
G04 Aperture macros list*
%AMRoundRect*
0 Rectangle with rounded corners*
0 $1 Rounding radius*
0 $2 $3 $4 $5 $6 $7 $8 $9 X,Y pos of 4 corners*
0 Add a 4 corners polygon primitive as box body*
4,1,4,$2,$3,$4,$5,$6,$7,$8,$9,$2,$3,0*
0 Add four circle primitives for the rounded corners*
1,1,$1+$1,$2,$3*
1,1,$1+$1,$4,$5*
1,1,$1+$1,$6,$7*
1,1,$1+$1,$8,$9*
0 Add four rect primitives between the rounded corners*
20,1,$1+$1,$2,$3,$4,$5,0*
20,1,$1+$1,$4,$5,$6,$7,0*
20,1,$1+$1,$6,$7,$8,$9,0*
20,1,$1+$1,$8,$9,$2,$3,0*%
G04 Aperture macros list end*
%TA.AperFunction,ComponentPad*%
%ADD10RoundRect,0.250000X-1.050000X-1.050000X1.050000X-1.050000X1.050000X1.050000X-1.050000X1.050000X0*%
%TD*%
%TA.AperFunction,ComponentPad*%
%ADD11C,2.600000*%
%TD*%
%TA.AperFunction,ComponentPad*%
%ADD12R,1.700000X1.700000*%
%TD*%
%TA.AperFunction,ComponentPad*%
%ADD13C,1.700000*%
%TD*%
%TA.AperFunction,ComponentPad*%
%ADD14RoundRect,0.250000X1.050000X1.050000X-1.050000X1.050000X-1.050000X-1.050000X1.050000X-1.050000X0*%
%TD*%
G04 APERTURE END LIST*
D10*
%TO.P,MotorBL1,1,Pin_1*%
%TO.N,Net-(MotorBL1-Pin_1)*%
X99130000Y-126572173D03*
D11*
%TO.P,MotorBL1,2,Pin_2*%
%TO.N,Net-(MotorBL1-Pin_2)*%
X104210000Y-126572173D03*
%TD*%
%TO.P,MotorFL1,2,Pin_2*%
%TO.N,Net-(MotorBL1-Pin_2)*%
X104210000Y-107242173D03*
D10*
%TO.P,MotorFL1,1,Pin_1*%
%TO.N,Net-(MotorBL1-Pin_1)*%
X99130000Y-107242173D03*
%TD*%
D12*
%TO.P,Buck_OUT-1,1,Pin_1*%
%TO.N,GND*%
X163291845Y-122762373D03*
D13*
%TO.P,Buck_OUT-1,2,Pin_2*%
X160751845Y-122762373D03*
%TD*%
D11*
%TO.P,MotorFR1,2,Pin_2*%
%TO.N,Net-(MotorBR1-Pin_2)*%
X174712047Y-106632173D03*
D14*
%TO.P,MotorFR1,1,Pin_1*%
%TO.N,Net-(MotorBR1-Pin_1)*%
X179792047Y-106632173D03*
%TD*%
D12*
%TO.P,Buck_IN-1,1,Pin_1*%
%TO.N,GND*%
X163291845Y-102762373D03*
D13*
%TO.P,Buck_IN-1,2,Pin_2*%
X160751845Y-102762373D03*
%TD*%
D12*
%TO.P,TB6612FNGR1,1,Pin_1*%
%TO.N,VCC*%
X139886381Y-137992762D03*
D13*
%TO.P,TB6612FNGR1,2,Pin_2*%
%TO.N,/3V3_OUT*%
X137346381Y-137992762D03*
%TO.P,TB6612FNGR1,3,Pin_3*%
%TO.N,GND18*%
X134806381Y-137992762D03*
%TO.P,TB6612FNGR1,4,Pin_4*%
%TO.N,Net-(MotorBR1-Pin_2)*%
X132266381Y-137992762D03*
%TO.P,TB6612FNGR1,5,Pin_5*%
%TO.N,Net-(MotorBR1-Pin_1)*%
X129726381Y-137992762D03*
%TO.P,TB6612FNGR1,6,Pin_6*%
%TO.N,Net-(MotorBL1-Pin_1)*%
X127186381Y-137992762D03*
%TO.P,TB6612FNGR1,7,Pin_7*%
%TO.N,Net-(MotorBL1-Pin_2)*%
X124646381Y-137992762D03*
%TO.P,TB6612FNGR1,8,Pin_8*%
%TO.N,unconnected-(TB6612FNGR1-Pin_8-Pad8)*%
X122106381Y-137992762D03*
%TD*%
D12*
%TO.P,Buck_OUT+1,1,Pin_1*%
%TO.N,/BuckOut*%
X152751845Y-122762373D03*
D13*
%TO.P,Buck_OUT+1,2,Pin_2*%
X150211845Y-122762373D03*
%TD*%
D12*
%TO.P,PicoR1,1,Pin_1*%
%TO.N,Net-(PicoR1-Pin_1)*%
X139620000Y-112000293D03*
D13*
%TO.P,PicoR1,2,Pin_2*%
%TO.N,Net-(PicoR1-Pin_2)*%
X139620000Y-109460293D03*
%TO.P,PicoR1,3,Pin_3*%
%TO.N,unconnected-(PicoR1-Pin_3-Pad3)*%
X139620000Y-106920293D03*
%TO.P,PicoR1,4,Pin_4*%
%TO.N,Net-(PicoR1-Pin_4)*%
X139620000Y-104380293D03*
%TO.P,PicoR1,5,Pin_5*%
%TO.N,Net-(PicoR1-Pin_5)*%
X139620000Y-101840293D03*
%TO.P,PicoR1,6,Pin_6*%
%TO.N,Net-(PicoR1-Pin_6)*%
X139620000Y-99300293D03*
%TO.P,PicoR1,7,Pin_7*%
%TO.N,Net-(PicoR1-Pin_7)*%
X139620000Y-96760293D03*
%TO.P,PicoR1,8,Pin_8*%
%TO.N,unconnected-(PicoR1-Pin_8-Pad8)*%
X139620000Y-94220293D03*
%TO.P,PicoR1,9,Pin_9*%
%TO.N,unconnected-(PicoR1-Pin_9-Pad9)*%
X139620000Y-91680293D03*
%TO.P,PicoR1,10,Pin_10*%
%TO.N,unconnected-(PicoR1-Pin_10-Pad10)*%
X139620000Y-89140293D03*
%TO.P,PicoR1,11,Pin_11*%
%TO.N,unconnected-(PicoR1-Pin_11-Pad11)*%
X139620000Y-86600293D03*
%TO.P,PicoR1,12,Pin_12*%
%TO.N,unconnected-(PicoR1-Pin_12-Pad12)*%
X139620000Y-84060293D03*
%TO.P,PicoR1,13,Pin_13*%
%TO.N,unconnected-(PicoR1-Pin_13-Pad13)*%
X139620000Y-81520293D03*
%TO.P,PicoR1,14,Pin_14*%
%TO.N,unconnected-(PicoR1-Pin_14-Pad14)*%
X139620000Y-78980293D03*
%TO.P,PicoR1,15,Pin_15*%
%TO.N,unconnected-(PicoR1-Pin_15-Pad15)*%
X139620000Y-76440293D03*
%TO.P,PicoR1,16,Pin_16*%
%TO.N,/3V3_OUT*%
X139620000Y-73900293D03*
%TO.P,PicoR1,17,Pin_17*%
%TO.N,unconnected-(PicoR1-Pin_17-Pad17)*%
X139620000Y-71360293D03*
%TO.P,PicoR1,18,Pin_18*%
%TO.N,unconnected-(PicoR1-Pin_18-Pad18)*%
X139620000Y-68820293D03*
%TO.P,PicoR1,19,Pin_19*%
%TO.N,/BuckOut*%
X139620000Y-66280293D03*
%TO.P,PicoR1,20,Pin_20*%
%TO.N,unconnected-(PicoR1-Pin_20-Pad20)*%
X139620000Y-63740293D03*
%TD*%
D11*
%TO.P,MotorBR1,2,Pin_2*%
%TO.N,Net-(MotorBR1-Pin_2)*%
X174712047Y-125962173D03*
D14*
%TO.P,MotorBR1,1,Pin_1*%
%TO.N,Net-(MotorBR1-Pin_1)*%
X179792047Y-125962173D03*
%TD*%
D12*
%TO.P,TB6612FNGL1,1,Pin_1*%
%TO.N,unconnected-(TB6612FNGL1-Pin_1-Pad1)*%
X139886381Y-121904762D03*
D13*
%TO.P,TB6612FNGL1,2,Pin_2*%
%TO.N,Net-(PicoR1-Pin_1)*%
X137346381Y-121904762D03*
%TO.P,TB6612FNGL1,3,Pin_3*%
%TO.N,Net-(PicoR1-Pin_2)*%
X134806381Y-121904762D03*
%TO.P,TB6612FNGL1,4,Pin_4*%
%TO.N,Net-(PicoR1-Pin_4)*%
X132266381Y-121904762D03*
%TO.P,TB6612FNGL1,5,Pin_5*%
%TO.N,/3V3_OUT*%
X129726381Y-121904762D03*
%TO.P,TB6612FNGL1,6,Pin_6*%
%TO.N,Net-(PicoR1-Pin_5)*%
X127186381Y-121904762D03*
%TO.P,TB6612FNGL1,7,Pin_7*%
%TO.N,Net-(PicoR1-Pin_6)*%
X124646381Y-121904762D03*
%TO.P,TB6612FNGL1,8,Pin_8*%
%TO.N,Net-(PicoR1-Pin_7)*%
X122106381Y-121904762D03*
%TD*%
D12*
%TO.P,QTR-8RC1,1,Pin_1*%
%TO.N,/3V3_OUT*%
X142700000Y-44000000D03*
D13*
%TO.P,QTR-8RC1,2,Pin_2*%
%TO.N,Net-(PicoL1-Pin_12)*%
X140160000Y-44000000D03*
%TO.P,QTR-8RC1,3,Pin_3*%
%TO.N,Net-(PicoL1-Pin_11)*%
X137620000Y-44000000D03*
%TO.P,QTR-8RC1,4,Pin_4*%
%TO.N,Net-(PicoL1-Pin_10)*%
X135080000Y-44000000D03*
%TO.P,QTR-8RC1,5,Pin_5*%
%TO.N,Net-(PicoL1-Pin_9)*%
X132540000Y-44000000D03*
%TO.P,QTR-8RC1,6,Pin_6*%
%TO.N,Net-(PicoL1-Pin_7)*%
X130000000Y-44000000D03*
%TO.P,QTR-8RC1,7,Pin_7*%
%TO.N,Net-(PicoL1-Pin_6)*%
X127460000Y-44000000D03*
%TO.P,QTR-8RC1,8,Pin_8*%
%TO.N,Net-(PicoL1-Pin_5)*%
X124920000Y-44000000D03*
%TO.P,QTR-8RC1,9,Pin_9*%
%TO.N,Net-(PicoL1-Pin_4)*%
X122380000Y-44000000D03*
%TO.P,QTR-8RC1,10,Pin_10*%
%TO.N,Net-(PicoL1-Pin_2)*%
X119840000Y-44000000D03*
%TO.P,QTR-8RC1,11,Pin_11*%
%TO.N,GND3*%
X117300000Y-44000000D03*
%TD*%
D12*
%TO.P,Buck_IN+1,1,Pin_1*%
%TO.N,VCC*%
X152751845Y-102762373D03*
D13*
%TO.P,Buck_IN+1,2,Pin_2*%
X150211845Y-102762373D03*
%TD*%
D14*
%TO.P,Battery1,1,Pin_1*%
%TO.N,GND*%
X154830000Y-90750000D03*
D11*
%TO.P,Battery1,2,Pin_2*%
%TO.N,VCC*%
X149750000Y-90750000D03*
%TD*%
D12*
%TO.P,PicoL1,1,Pin_1*%
%TO.N,unconnected-(PicoL1-Pin_1-Pad1)*%
X122000000Y-63860293D03*
D13*
%TO.P,PicoL1,2,Pin_2*%
%TO.N,Net-(PicoL1-Pin_2)*%
X122000000Y-66400293D03*
%TO.P,PicoL1,3,Pin_3*%
%TO.N,GND3*%
X122000000Y-68940293D03*
%TO.P,PicoL1,4,Pin_4*%
%TO.N,Net-(PicoL1-Pin_4)*%
X122000000Y-71480293D03*
%TO.P,PicoL1,5,Pin_5*%
%TO.N,Net-(PicoL1-Pin_5)*%
X122000000Y-74020293D03*
%TO.P,PicoL1,6,Pin_6*%
%TO.N,Net-(PicoL1-Pin_6)*%
X122000000Y-76560293D03*
%TO.P,PicoL1,7,Pin_7*%
%TO.N,Net-(PicoL1-Pin_7)*%
X122000000Y-79100293D03*
%TO.P,PicoL1,8,Pin_8*%
%TO.N,unconnected-(PicoL1-Pin_8-Pad8)*%
X122000000Y-81640293D03*
%TO.P,PicoL1,9,Pin_9*%
%TO.N,Net-(PicoL1-Pin_9)*%
X122000000Y-84180293D03*
%TO.P,PicoL1,10,Pin_10*%
%TO.N,Net-(PicoL1-Pin_10)*%
X122000000Y-86720293D03*
%TO.P,PicoL1,11,Pin_11*%
%TO.N,Net-(PicoL1-Pin_11)*%
X122000000Y-89260293D03*
%TO.P,PicoL1,12,Pin_12*%
%TO.N,Net-(PicoL1-Pin_12)*%
X122000000Y-91800293D03*
%TO.P,PicoL1,13,Pin_13*%
%TO.N,GND*%
X122000000Y-94340293D03*
%TO.P,PicoL1,14,Pin_14*%
%TO.N,unconnected-(PicoL1-Pin_14-Pad14)*%
X122000000Y-96880293D03*
%TO.P,PicoL1,15,Pin_15*%
%TO.N,unconnected-(PicoL1-Pin_15-Pad15)*%
X122000000Y-99420293D03*
%TO.P,PicoL1,16,Pin_16*%
%TO.N,unconnected-(PicoL1-Pin_16-Pad16)*%
X122000000Y-101960293D03*
%TO.P,PicoL1,17,Pin_17*%
%TO.N,unconnected-(PicoL1-Pin_17-Pad17)*%
X122000000Y-104500293D03*
%TO.P,PicoL1,18,Pin_18*%
%TO.N,GND18*%
X122000000Y-107040293D03*
%TO.P,PicoL1,19,Pin_19*%
%TO.N,unconnected-(PicoL1-Pin_19-Pad19)*%
X122000000Y-109580293D03*
%TO.P,PicoL1,20,Pin_20*%
%TO.N,unconnected-(PicoL1-Pin_20-Pad20)*%
X122000000Y-112120293D03*
%TD*%
M02*
