%TF.GenerationSoftware,KiCad,Pcbnew,9.0.7*%
%TF.CreationDate,2026-01-22T15:28:46+05:00*%
%TF.ProjectId,PCB,5043422e-6b69-4636-9164-5f7063625858,rev?*%
%TF.SameCoordinates,Original*%
%TF.FileFunction,Soldermask,Top*%
%TF.FilePolarity,Negative*%
%FSLAX46Y46*%
G04 Gerber Fmt 4.6, Leading zero omitted, Abs format (unit mm)*
G04 Created by KiCad (PCBNEW 9.0.7) date 2026-01-22 15:28:46*
%MOMM*%
%LPD*%
G01*
G04 APERTURE LIST*
G04 Aperture macros list*
%AMRoundRect*
0 Rectangle with rounded corners*
0 $1 Rounding radius*
0 $2 $3 $4 $5 $6 $7 $8 $9 X,Y pos of 4 corners*
0 Add a 4 corners polygon primitive as box body*
4,1,4,$2,$3,$4,$5,$6,$7,$8,$9,$2,$3,0*
0 Add four circle primitives for the rounded corners*
1,1,$1+$1,$2,$3*
1,1,$1+$1,$4,$5*
1,1,$1+$1,$6,$7*
1,1,$1+$1,$8,$9*
0 Add four rect primitives between the rounded corners*
20,1,$1+$1,$2,$3,$4,$5,0*
20,1,$1+$1,$4,$5,$6,$7,0*
20,1,$1+$1,$6,$7,$8,$9,0*
20,1,$1+$1,$8,$9,$2,$3,0*%
G04 Aperture macros list end*
%ADD10RoundRect,0.250000X-1.050000X-1.050000X1.050000X-1.050000X1.050000X1.050000X-1.050000X1.050000X0*%
%ADD11C,2.600000*%
%ADD12R,1.700000X1.700000*%
%ADD13C,1.700000*%
%ADD14RoundRect,0.250000X1.050000X1.050000X-1.050000X1.050000X-1.050000X-1.050000X1.050000X-1.050000X0*%
G04 APERTURE END LIST*
D10*
%TO.C,MotorBL1*%
X99130000Y-126572173D03*
D11*
X104210000Y-126572173D03*
%TD*%
%TO.C,MotorFL1*%
X104210000Y-107242173D03*
D10*
X99130000Y-107242173D03*
%TD*%
D12*
%TO.C,Buck_OUT-1*%
X163291845Y-122762373D03*
D13*
X160751845Y-122762373D03*
%TD*%
D11*
%TO.C,MotorFR1*%
X174712047Y-106632173D03*
D14*
X179792047Y-106632173D03*
%TD*%
D12*
%TO.C,Buck_IN-1*%
X163291845Y-102762373D03*
D13*
X160751845Y-102762373D03*
%TD*%
D12*
%TO.C,TB6612FNGR1*%
X139886381Y-137992762D03*
D13*
X137346381Y-137992762D03*
X134806381Y-137992762D03*
X132266381Y-137992762D03*
X129726381Y-137992762D03*
X127186381Y-137992762D03*
X124646381Y-137992762D03*
X122106381Y-137992762D03*
%TD*%
D12*
%TO.C,Buck_OUT+1*%
X152751845Y-122762373D03*
D13*
X150211845Y-122762373D03*
%TD*%
D12*
%TO.C,PicoR1*%
X139620000Y-112000293D03*
D13*
X139620000Y-109460293D03*
X139620000Y-106920293D03*
X139620000Y-104380293D03*
X139620000Y-101840293D03*
X139620000Y-99300293D03*
X139620000Y-96760293D03*
X139620000Y-94220293D03*
X139620000Y-91680293D03*
X139620000Y-89140293D03*
X139620000Y-86600293D03*
X139620000Y-84060293D03*
X139620000Y-81520293D03*
X139620000Y-78980293D03*
X139620000Y-76440293D03*
X139620000Y-73900293D03*
X139620000Y-71360293D03*
X139620000Y-68820293D03*
X139620000Y-66280293D03*
X139620000Y-63740293D03*
%TD*%
D11*
%TO.C,MotorBR1*%
X174712047Y-125962173D03*
D14*
X179792047Y-125962173D03*
%TD*%
D12*
%TO.C,TB6612FNGL1*%
X139886381Y-121904762D03*
D13*
X137346381Y-121904762D03*
X134806381Y-121904762D03*
X132266381Y-121904762D03*
X129726381Y-121904762D03*
X127186381Y-121904762D03*
X124646381Y-121904762D03*
X122106381Y-121904762D03*
%TD*%
D12*
%TO.C,QTR-8RC1*%
X142700000Y-44000000D03*
D13*
X140160000Y-44000000D03*
X137620000Y-44000000D03*
X135080000Y-44000000D03*
X132540000Y-44000000D03*
X130000000Y-44000000D03*
X127460000Y-44000000D03*
X124920000Y-44000000D03*
X122380000Y-44000000D03*
X119840000Y-44000000D03*
X117300000Y-44000000D03*
%TD*%
D12*
%TO.C,Buck_IN+1*%
X152751845Y-102762373D03*
D13*
X150211845Y-102762373D03*
%TD*%
D14*
%TO.C,Battery1*%
X154830000Y-90750000D03*
D11*
X149750000Y-90750000D03*
%TD*%
D12*
%TO.C,PicoL1*%
X122000000Y-63860293D03*
D13*
X122000000Y-66400293D03*
X122000000Y-68940293D03*
X122000000Y-71480293D03*
X122000000Y-74020293D03*
X122000000Y-76560293D03*
X122000000Y-79100293D03*
X122000000Y-81640293D03*
X122000000Y-84180293D03*
X122000000Y-86720293D03*
X122000000Y-89260293D03*
X122000000Y-91800293D03*
X122000000Y-94340293D03*
X122000000Y-96880293D03*
X122000000Y-99420293D03*
X122000000Y-101960293D03*
X122000000Y-104500293D03*
X122000000Y-107040293D03*
X122000000Y-109580293D03*
X122000000Y-112120293D03*
%TD*%
M02*
